{
    "asset" : {
        "generator" : "Khronos glTF Blender I/O v1.7.33",
        "version" : "2.0"
    },
    "scene" : 0,
    "scenes" : [
        {
            "name" : "Scene",
            "nodes" : [
                0,
                1,
                2,
                3,
                4,
                5,
                6,
                7,
                8,
                9
            ]
        }
    ],
    "nodes" : [
        {
            "mesh" : 0,
            "name" : "Sphere.003",
            "rotation" : [
                0,
                0,
                0.7071067690849304,
                0.7071068286895752
            ],
            "scale" : [
                0.871437132358551,
                0.871437132358551,
                0.871437132358551
            ],
            "translation" : [
                0,
                1.0008569955825806,
                -0.007539272308349609
            ]
        },
        {
            "mesh" : 1,
            "name" : "Sphere.004",
            "scale" : [
                0.15921355783939362,
                0.3496417999267578,
                0.3496417999267578
            ],
            "translation" : [
                -0.09254273772239685,
                1.2673290967941284,
                0.014258384704589844
            ]
        },
        {
            "mesh" : 2,
            "name" : "Sphere.005",
            "scale" : [
                0.47287699580192566,
                1.038464069366455,
                1.4322993755340576
            ],
            "translation" : [
                -0.20560340583324432,
                1.293479561805725,
                -0.03983712196350098
            ]
        },
        {
            "mesh" : 3,
            "name" : "Sphere.006",
            "scale" : [
                0.15921355783939362,
                0.3496417999267578,
                0.3496417999267578
            ],
            "translation" : [
                -0.09254273772239685,
                0.6055601239204407,
                0.014258384704589844
            ]
        },
        {
            "mesh" : 4,
            "name" : "Sphere.007",
            "scale" : [
                0.47287699580192566,
                1.038464069366455,
                1.3278857469558716
            ],
            "translation" : [
                -0.20560340583324432,
                0.6317105889320374,
                -0.03983712196350098
            ]
        },
        {
            "mesh" : 5,
            "name" : "Sphere.008",
            "scale" : [
                0.07076042145490646,
                0.1553938090801239,
                0.1553938090801239
            ],
            "translation" : [
                -0.12394890189170837,
                0.9409741759300232,
                0.39246368408203125
            ]
        },
        {
            "mesh" : 6,
            "name" : "Sphere.009",
            "scale" : [
                0.2101641297340393,
                0.46153196692466736,
                0.46153196692466736
            ],
            "translation" : [
                -0.174197256565094,
                0.9525963664054871,
                0.3684215545654297
            ]
        },
        {
            "mesh" : 7,
            "name" : "Sphere.010",
            "scale" : [
                0.07076042145490646,
                0.1553938090801239,
                0.1553938090801239
            ],
            "translation" : [
                -0.12394890189170837,
                0.9409741759300232,
                -0.4257082939147949
            ]
        },
        {
            "mesh" : 8,
            "name" : "Sphere.011",
            "scale" : [
                0.2101641297340393,
                0.46153196692466736,
                0.46153196692466736
            ],
            "translation" : [
                -0.174197256565094,
                0.9525963664054871,
                -0.4497504234313965
            ]
        },
        {
            "mesh" : 9,
            "name" : "Text.001",
            "rotation" : [
                0.5,
                0.5,
                -0.5,
                0.4999999701976776
            ],
            "scale" : [
                0.45779749751091003,
                0.45779749751091003,
                0.45779749751091003
            ],
            "translation" : [
                -0.16859480738639832,
                2.6151411533355713,
                0.5758466720581055
            ]
        }
    ],
    "materials" : [
        {
            "doubleSided" : true,
            "name" : "Material.003",
            "pbrMetallicRoughness" : {
                "baseColorFactor" : [
                    0.8000000715255737,
                    0.2900178134441376,
                    0.12307845801115036,
                    1
                ],
                "metallicFactor" : 0,
                "roughnessFactor" : 0.4000000059604645
            }
        },
        {
            "doubleSided" : true,
            "name" : "Material.002",
            "pbrMetallicRoughness" : {
                "baseColorFactor" : [
                    1,
                    0.21220631897449493,
                    0.008153185248374939,
                    1
                ],
                "metallicFactor" : 0,
                "roughnessFactor" : 0.4000000059604645
            }
        },
        {
            "doubleSided" : true,
            "name" : "Material.004",
            "pbrMetallicRoughness" : {
                "baseColorFactor" : [
                    1,
                    0.2241017073392868,
                    0.11240486800670624,
                    1
                ],
                "metallicFactor" : 0,
                "roughnessFactor" : 0.4000000059604645
            }
        },
        {
            "doubleSided" : true,
            "name" : "Material.005",
            "pbrMetallicRoughness" : {
                "baseColorFactor" : [
                    0,
                    0,
                    0,
                    1
                ],
                "metallicFactor" : 0,
                "roughnessFactor" : 0.4000000059604645
            }
        }
    ],
    "meshes" : [
        {
            "name" : "Sphere.004",
            "primitives" : [
                {
                    "attributes" : {
                        "POSITION" : 0,
                        "NORMAL" : 1,
                        "TEXCOORD_0" : 2
                    },
                    "indices" : 3,
                    "material" : 0
                }
            ]
        },
        {
            "name" : "Sphere.005",
            "primitives" : [
                {
                    "attributes" : {
                        "POSITION" : 4,
                        "NORMAL" : 5,
                        "TEXCOORD_0" : 6
                    },
                    "indices" : 7,
                    "material" : 1
                }
            ]
        },
        {
            "name" : "Sphere.006",
            "primitives" : [
                {
                    "attributes" : {
                        "POSITION" : 8,
                        "NORMAL" : 9,
                        "TEXCOORD_0" : 10
                    },
                    "indices" : 7,
                    "material" : 2
                }
            ]
        },
        {
            "name" : "Sphere.007",
            "primitives" : [
                {
                    "attributes" : {
                        "POSITION" : 11,
                        "NORMAL" : 12,
                        "TEXCOORD_0" : 13
                    },
                    "indices" : 7,
                    "material" : 1
                }
            ]
        },
        {
            "name" : "Sphere.008",
            "primitives" : [
                {
                    "attributes" : {
                        "POSITION" : 14,
                        "NORMAL" : 15,
                        "TEXCOORD_0" : 16
                    },
                    "indices" : 7,
                    "material" : 2
                }
            ]
        },
        {
            "name" : "Sphere.009",
            "primitives" : [
                {
                    "attributes" : {
                        "POSITION" : 17,
                        "NORMAL" : 18,
                        "TEXCOORD_0" : 19
                    },
                    "indices" : 7,
                    "material" : 1
                }
            ]
        },
        {
            "name" : "Sphere.010",
            "primitives" : [
                {
                    "attributes" : {
                        "POSITION" : 20,
                        "NORMAL" : 21,
                        "TEXCOORD_0" : 22
                    },
                    "indices" : 7,
                    "material" : 2
                }
            ]
        },
        {
            "name" : "Sphere.011",
            "primitives" : [
                {
                    "attributes" : {
                        "POSITION" : 23,
                        "NORMAL" : 24,
                        "TEXCOORD_0" : 25
                    },
                    "indices" : 7,
                    "material" : 1
                }
            ]
        },
        {
            "name" : "Sphere.012",
            "primitives" : [
                {
                    "attributes" : {
                        "POSITION" : 26,
                        "NORMAL" : 27,
                        "TEXCOORD_0" : 28
                    },
                    "indices" : 7,
                    "material" : 2
                }
            ]
        },
        {
            "name" : "Text.001",
            "primitives" : [
                {
                    "attributes" : {
                        "POSITION" : 29,
                        "NORMAL" : 30,
                        "TEXCOORD_0" : 31
                    },
                    "indices" : 32,
                    "material" : 3
                }
            ]
        }
    ],
    "accessors" : [
        {
            "bufferView" : 0,
            "componentType" : 5126,
            "count" : 724,
            "max" : [
                0.9965842366218567,
                1,
                0.9965841174125671
            ],
            "min" : [
                -0.9965838193893433,
                0.0825793594121933,
                -0.9965844750404358
            ],
            "type" : "VEC3"
        },
        {
            "bufferView" : 1,
            "componentType" : 5126,
            "count" : 724,
            "type" : "VEC3"
        },
        {
            "bufferView" : 2,
            "componentType" : 5126,
            "count" : 724,
            "type" : "VEC2"
        },
        {
            "bufferView" : 3,
            "componentType" : 5123,
            "count" : 3840,
            "type" : "SCALAR"
        },
        {
            "bufferView" : 4,
            "componentType" : 5126,
            "count" : 448,
            "max" : [
                0.3186355531215668,
                0.32000064849853516,
                0.3186355233192444
            ],
            "min" : [
                -0.3186354637145996,
                -0.32000064849853516,
                -0.31863558292388916
            ],
            "type" : "VEC3"
        },
        {
            "bufferView" : 5,
            "componentType" : 5126,
            "count" : 448,
            "type" : "VEC3"
        },
        {
            "bufferView" : 6,
            "componentType" : 5126,
            "count" : 448,
            "type" : "VEC2"
        },
        {
            "bufferView" : 7,
            "componentType" : 5123,
            "count" : 2304,
            "type" : "SCALAR"
        },
        {
            "bufferView" : 8,
            "componentType" : 5126,
            "count" : 448,
            "max" : [
                0.3186355531215668,
                0.32000064849853516,
                0.3186355233192444
            ],
            "min" : [
                -0.3186354637145996,
                -0.32000064849853516,
                -0.31863558292388916
            ],
            "type" : "VEC3"
        },
        {
            "bufferView" : 9,
            "componentType" : 5126,
            "count" : 448,
            "type" : "VEC3"
        },
        {
            "bufferView" : 10,
            "componentType" : 5126,
            "count" : 448,
            "type" : "VEC2"
        },
        {
            "bufferView" : 11,
            "componentType" : 5126,
            "count" : 448,
            "max" : [
                0.3186355531215668,
                0.32000064849853516,
                0.3186355233192444
            ],
            "min" : [
                -0.3186354637145996,
                -0.32000064849853516,
                -0.31863558292388916
            ],
            "type" : "VEC3"
        },
        {
            "bufferView" : 12,
            "componentType" : 5126,
            "count" : 448,
            "type" : "VEC3"
        },
        {
            "bufferView" : 13,
            "componentType" : 5126,
            "count" : 448,
            "type" : "VEC2"
        },
        {
            "bufferView" : 14,
            "componentType" : 5126,
            "count" : 448,
            "max" : [
                0.3186355531215668,
                0.32000064849853516,
                0.3186355233192444
            ],
            "min" : [
                -0.3186354637145996,
                -0.32000064849853516,
                -0.31863558292388916
            ],
            "type" : "VEC3"
        },
        {
            "bufferView" : 15,
            "componentType" : 5126,
            "count" : 448,
            "type" : "VEC3"
        },
        {
            "bufferView" : 16,
            "componentType" : 5126,
            "count" : 448,
            "type" : "VEC2"
        },
        {
            "bufferView" : 17,
            "componentType" : 5126,
            "count" : 448,
            "max" : [
                0.3186355531215668,
                0.32000064849853516,
                0.3186355233192444
            ],
            "min" : [
                -0.3186354637145996,
                -0.32000064849853516,
                -0.31863558292388916
            ],
            "type" : "VEC3"
        },
        {
            "bufferView" : 18,
            "componentType" : 5126,
            "count" : 448,
            "type" : "VEC3"
        },
        {
            "bufferView" : 19,
            "componentType" : 5126,
            "count" : 448,
            "type" : "VEC2"
        },
        {
            "bufferView" : 20,
            "componentType" : 5126,
            "count" : 448,
            "max" : [
                0.3186355531215668,
                0.32000064849853516,
                0.3186355233192444
            ],
            "min" : [
                -0.3186354637145996,
                -0.32000064849853516,
                -0.31863558292388916
            ],
            "type" : "VEC3"
        },
        {
            "bufferView" : 21,
            "componentType" : 5126,
            "count" : 448,
            "type" : "VEC3"
        },
        {
            "bufferView" : 22,
            "componentType" : 5126,
            "count" : 448,
            "type" : "VEC2"
        },
        {
            "bufferView" : 23,
            "componentType" : 5126,
            "count" : 448,
            "max" : [
                0.3186355531215668,
                0.32000064849853516,
                0.3186355233192444
            ],
            "min" : [
                -0.3186354637145996,
                -0.32000064849853516,
                -0.31863558292388916
            ],
            "type" : "VEC3"
        },
        {
            "bufferView" : 24,
            "componentType" : 5126,
            "count" : 448,
            "type" : "VEC3"
        },
        {
            "bufferView" : 25,
            "componentType" : 5126,
            "count" : 448,
            "type" : "VEC2"
        },
        {
            "bufferView" : 26,
            "componentType" : 5126,
            "count" : 448,
            "max" : [
                0.3186355531215668,
                0.32000064849853516,
                0.3186355233192444
            ],
            "min" : [
                -0.3186354637145996,
                -0.32000064849853516,
                -0.31863558292388916
            ],
            "type" : "VEC3"
        },
        {
            "bufferView" : 27,
            "componentType" : 5126,
            "count" : 448,
            "type" : "VEC3"
        },
        {
            "bufferView" : 28,
            "componentType" : 5126,
            "count" : 448,
            "type" : "VEC2"
        },
        {
            "bufferView" : 29,
            "componentType" : 5126,
            "count" : 6476,
            "max" : [
                2.11299991607666,
                0.03999999910593033,
                1.2300000190734863
            ],
            "min" : [
                0.03400000184774399,
                -0.03999999910593033,
                -0.6910000443458557
            ],
            "type" : "VEC3"
        },
        {
            "bufferView" : 30,
            "componentType" : 5126,
            "count" : 6476,
            "type" : "VEC3"
        },
        {
            "bufferView" : 31,
            "componentType" : 5126,
            "count" : 6476,
            "type" : "VEC2"
        },
        {
            "bufferView" : 32,
            "componentType" : 5123,
            "count" : 12012,
            "type" : "SCALAR"
        }
    ],
    "bufferViews" : [
        {
            "buffer" : 0,
            "byteLength" : 8688,
            "byteOffset" : 0
        },
        {
            "buffer" : 0,
            "byteLength" : 8688,
            "byteOffset" : 8688
        },
        {
            "buffer" : 0,
            "byteLength" : 5792,
            "byteOffset" : 17376
        },
        {
            "buffer" : 0,
            "byteLength" : 7680,
            "byteOffset" : 23168
        },
        {
            "buffer" : 0,
            "byteLength" : 5376,
            "byteOffset" : 30848
        },
        {
            "buffer" : 0,
            "byteLength" : 5376,
            "byteOffset" : 36224
        },
        {
            "buffer" : 0,
            "byteLength" : 3584,
            "byteOffset" : 41600
        },
        {
            "buffer" : 0,
            "byteLength" : 4608,
            "byteOffset" : 45184
        },
        {
            "buffer" : 0,
            "byteLength" : 5376,
            "byteOffset" : 49792
        },
        {
            "buffer" : 0,
            "byteLength" : 5376,
            "byteOffset" : 55168
        },
        {
            "buffer" : 0,
            "byteLength" : 3584,
            "byteOffset" : 60544
        },
        {
            "buffer" : 0,
            "byteLength" : 5376,
            "byteOffset" : 64128
        },
        {
            "buffer" : 0,
            "byteLength" : 5376,
            "byteOffset" : 69504
        },
        {
            "buffer" : 0,
            "byteLength" : 3584,
            "byteOffset" : 74880
        },
        {
            "buffer" : 0,
            "byteLength" : 5376,
            "byteOffset" : 78464
        },
        {
            "buffer" : 0,
            "byteLength" : 5376,
            "byteOffset" : 83840
        },
        {
            "buffer" : 0,
            "byteLength" : 3584,
            "byteOffset" : 89216
        },
        {
            "buffer" : 0,
            "byteLength" : 5376,
            "byteOffset" : 92800
        },
        {
            "buffer" : 0,
            "byteLength" : 5376,
            "byteOffset" : 98176
        },
        {
            "buffer" : 0,
            "byteLength" : 3584,
            "byteOffset" : 103552
        },
        {
            "buffer" : 0,
            "byteLength" : 5376,
            "byteOffset" : 107136
        },
        {
            "buffer" : 0,
            "byteLength" : 5376,
            "byteOffset" : 112512
        },
        {
            "buffer" : 0,
            "byteLength" : 3584,
            "byteOffset" : 117888
        },
        {
            "buffer" : 0,
            "byteLength" : 5376,
            "byteOffset" : 121472
        },
        {
            "buffer" : 0,
            "byteLength" : 5376,
            "byteOffset" : 126848
        },
        {
            "buffer" : 0,
            "byteLength" : 3584,
            "byteOffset" : 132224
        },
        {
            "buffer" : 0,
            "byteLength" : 5376,
            "byteOffset" : 135808
        },
        {
            "buffer" : 0,
            "byteLength" : 5376,
            "byteOffset" : 141184
        },
        {
            "buffer" : 0,
            "byteLength" : 3584,
            "byteOffset" : 146560
        },
        {
            "buffer" : 0,
            "byteLength" : 77712,
            "byteOffset" : 150144
        },
        {
            "buffer" : 0,
            "byteLength" : 77712,
            "byteOffset" : 227856
        },
        {
            "buffer" : 0,
            "byteLength" : 51808,
            "byteOffset" : 305568
        },
        {
            "buffer" : 0,
            "byteLength" : 24024,
            "byteOffset" : 357376
        }
    ],
    "buffers" : [
        {
            "byteLength" : 381400,
            "uri" : "data:application/octet-stream;base64,"
        }
    ]
}
