{
    "asset" : {
        "generator" : "Khronos glTF Blender I/O v1.7.33",
        "version" : "2.0"
    },
    "scene" : 0,
    "scenes" : [
        {
            "name" : "Scene",
            "nodes" : [
                0,
                1,
                2,
                3,
                4,
                5,
                6
            ]
        }
    ],
    "nodes" : [
        {
            "mesh" : 0,
            "name" : "beaker500mL",
            "scale" : [
                2.754354953765869,
                2.754354953765869,
                2.754354953765869
            ],
            "translation" : [
                -0.0009469381766393781,
                0.3040848970413208,
                -0.5651501417160034
            ]
        },
        {
            "mesh" : 1,
            "name" : "beaker250mL",
            "scale" : [
                2.754354953765869,
                2.754354953765869,
                2.754354953765869
            ],
            "translation" : [
                -0.0009469330543652177,
                0.24832358956336975,
                -0.010990212671458721
            ]
        },
        {
            "mesh" : 2,
            "name" : "beaker 100ml",
            "scale" : [
                2.754354953765869,
                2.754354953765869,
                2.754354953765869
            ],
            "translation" : [
                -0.0009469444630667567,
                0.18908347189426422,
                0.5139335989952087
            ]
        },
        {
            "mesh" : 3,
            "name" : "Cube.001",
            "scale" : [
                2.754354953765869,
                2.754354953765869,
                2.754354953765869
            ],
            "translation" : [
                -0.0009469436481595039,
                -0.03330560028553009,
                -0.014303880743682384
            ]
        },
        {
            "mesh" : 4,
            "name" : "Text",
            "rotation" : [
                0.5,
                0.5,
                -0.5,
                0.4999999701976776
            ],
            "scale" : [
                0.04706677049398422,
                0.04706677049398422,
                0.04706677049398422
            ],
            "translation" : [
                0.0025220438838005066,
                0.32552245259284973,
                0.5680491924285889
            ]
        },
        {
            "mesh" : 5,
            "name" : "Text.001",
            "rotation" : [
                0.5,
                0.5,
                -0.5,
                0.4999999701976776
            ],
            "scale" : [
                0.06381577998399734,
                0.06381577998399734,
                0.06381577998399734
            ],
            "translation" : [
                0.0025220438838005066,
                0.4174450635910034,
                0.05853532627224922
            ]
        },
        {
            "mesh" : 6,
            "name" : "Text.002",
            "rotation" : [
                0.5,
                0.5,
                -0.5,
                0.4999999701976776
            ],
            "scale" : [
                0.06381577998399734,
                0.06381577998399734,
                0.06381577998399734
            ],
            "translation" : [
                0.0025220438838005066,
                0.5198730826377869,
                -0.4930002689361572
            ]
        }
    ],
    "materials" : [
        {
            "doubleSided" : true,
            "name" : "Material.001",
            "pbrMetallicRoughness" : {
                "baseColorFactor" : [
                    0.044237565249204636,
                    0.11300025880336761,
                    0.27383115887641907,
                    1
                ],
                "metallicFactor" : 0,
                "roughnessFactor" : 0.4000000059604645
            }
        },
        {
            "doubleSided" : true,
            "name" : "Material.002",
            "pbrMetallicRoughness" : {
                "baseColorFactor" : [
                    0.031063655391335487,
                    0.031063655391335487,
                    0.031063655391335487,
                    1
                ],
                "metallicFactor" : 0,
                "roughnessFactor" : 0.4000000059604645
            }
        }
    ],
    "meshes" : [
        {
            "name" : "Mesh",
            "primitives" : [
                {
                    "attributes" : {
                        "POSITION" : 0,
                        "NORMAL" : 1,
                        "TEXCOORD_0" : 2
                    },
                    "indices" : 3
                }
            ]
        },
        {
            "name" : "Mesh.002",
            "primitives" : [
                {
                    "attributes" : {
                        "POSITION" : 4,
                        "NORMAL" : 5,
                        "TEXCOORD_0" : 6
                    },
                    "indices" : 7
                }
            ]
        },
        {
            "name" : "Mesh.004",
            "primitives" : [
                {
                    "attributes" : {
                        "POSITION" : 8,
                        "NORMAL" : 9,
                        "TEXCOORD_0" : 10
                    },
                    "indices" : 11
                }
            ]
        },
        {
            "name" : "Cube.002",
            "primitives" : [
                {
                    "attributes" : {
                        "POSITION" : 12,
                        "NORMAL" : 13,
                        "TEXCOORD_0" : 14
                    },
                    "indices" : 15,
                    "material" : 0
                }
            ]
        },
        {
            "name" : "Text",
            "primitives" : [
                {
                    "attributes" : {
                        "POSITION" : 16,
                        "NORMAL" : 17,
                        "TEXCOORD_0" : 18
                    },
                    "indices" : 19,
                    "material" : 1
                }
            ]
        },
        {
            "name" : "Text.001",
            "primitives" : [
                {
                    "attributes" : {
                        "POSITION" : 20,
                        "NORMAL" : 21,
                        "TEXCOORD_0" : 22
                    },
                    "indices" : 23,
                    "material" : 1
                }
            ]
        },
        {
            "name" : "Text.002",
            "primitives" : [
                {
                    "attributes" : {
                        "POSITION" : 24,
                        "NORMAL" : 25,
                        "TEXCOORD_0" : 26
                    },
                    "indices" : 27,
                    "material" : 1
                }
            ]
        }
    ],
    "accessors" : [
        {
            "bufferView" : 0,
            "componentType" : 5126,
            "count" : 525,
            "max" : [
                0.06233857944607735,
                0.0571211539208889,
                0.0716216117143631
            ],
            "min" : [
                -0.06233857944607735,
                -0.09210646152496338,
                -0.06600203365087509
            ],
            "type" : "VEC3"
        },
        {
            "bufferView" : 1,
            "componentType" : 5126,
            "count" : 525,
            "type" : "VEC3"
        },
        {
            "bufferView" : 2,
            "componentType" : 5126,
            "count" : 525,
            "type" : "VEC2"
        },
        {
            "bufferView" : 3,
            "componentType" : 5123,
            "count" : 2652,
            "type" : "SCALAR"
        },
        {
            "bufferView" : 4,
            "componentType" : 5126,
            "count" : 525,
            "max" : [
                0.0486367829144001,
                0.04456622153520584,
                0.0558793842792511
            ],
            "min" : [
                -0.048636794090270996,
                -0.07186169922351837,
                -0.05149507522583008
            ],
            "type" : "VEC3"
        },
        {
            "bufferView" : 5,
            "componentType" : 5126,
            "count" : 525,
            "type" : "VEC3"
        },
        {
            "bufferView" : 6,
            "componentType" : 5126,
            "count" : 525,
            "type" : "VEC2"
        },
        {
            "bufferView" : 7,
            "componentType" : 5123,
            "count" : 2652,
            "type" : "SCALAR"
        },
        {
            "bufferView" : 8,
            "componentType" : 5126,
            "count" : 525,
            "max" : [
                0.03408006578683853,
                0.031227774918079376,
                0.03915498033165932
            ],
            "min" : [
                -0.03408006578683853,
                -0.050353921949863434,
                -0.03608289733529091
            ],
            "type" : "VEC3"
        },
        {
            "bufferView" : 9,
            "componentType" : 5126,
            "count" : 525,
            "type" : "VEC3"
        },
        {
            "bufferView" : 10,
            "componentType" : 5126,
            "count" : 525,
            "type" : "VEC2"
        },
        {
            "bufferView" : 11,
            "componentType" : 5123,
            "count" : 2652,
            "type" : "SCALAR"
        },
        {
            "bufferView" : 12,
            "componentType" : 5126,
            "count" : 88,
            "max" : [
                0.15743471682071686,
                0.030995748937129974,
                0.3218163549900055
            ],
            "min" : [
                -0.15743471682071686,
                0.00025040656328201294,
                -0.3218163549900055
            ],
            "type" : "VEC3"
        },
        {
            "bufferView" : 13,
            "componentType" : 5126,
            "count" : 88,
            "type" : "VEC3"
        },
        {
            "bufferView" : 14,
            "componentType" : 5126,
            "count" : 88,
            "type" : "VEC2"
        },
        {
            "bufferView" : 15,
            "componentType" : 5123,
            "count" : 324,
            "type" : "SCALAR"
        },
        {
            "bufferView" : 16,
            "componentType" : 5126,
            "count" : 1960,
            "max" : [
                2.424999952316284,
                0.08999998867511749,
                0.009000000543892384
            ],
            "min" : [
                0.20200000703334808,
                -0.08999998867511749,
                -0.6910000443458557
            ],
            "type" : "VEC3"
        },
        {
            "bufferView" : 17,
            "componentType" : 5126,
            "count" : 1960,
            "type" : "VEC3"
        },
        {
            "bufferView" : 18,
            "componentType" : 5126,
            "count" : 1960,
            "type" : "VEC2"
        },
        {
            "bufferView" : 19,
            "componentType" : 5123,
            "count" : 3648,
            "type" : "SCALAR"
        },
        {
            "bufferView" : 20,
            "componentType" : 5126,
            "count" : 2428,
            "max" : [
                2.424999952316284,
                0.08999998867511749,
                0.009000000543892384
            ],
            "min" : [
                0.03400000184774399,
                -0.08999998867511749,
                -0.6910000443458557
            ],
            "type" : "VEC3"
        },
        {
            "bufferView" : 21,
            "componentType" : 5126,
            "count" : 2428,
            "type" : "VEC3"
        },
        {
            "bufferView" : 22,
            "componentType" : 5126,
            "count" : 2428,
            "type" : "VEC2"
        },
        {
            "bufferView" : 23,
            "componentType" : 5123,
            "count" : 4440,
            "type" : "SCALAR"
        },
        {
            "bufferView" : 24,
            "componentType" : 5126,
            "count" : 2458,
            "max" : [
                2.424999952316284,
                0.08999998867511749,
                0.009000000543892384
            ],
            "min" : [
                0.05000000074505806,
                -0.08999998867511749,
                -0.6910000443458557
            ],
            "type" : "VEC3"
        },
        {
            "bufferView" : 25,
            "componentType" : 5126,
            "count" : 2458,
            "type" : "VEC3"
        },
        {
            "bufferView" : 26,
            "componentType" : 5126,
            "count" : 2458,
            "type" : "VEC2"
        },
        {
            "bufferView" : 27,
            "componentType" : 5123,
            "count" : 4536,
            "type" : "SCALAR"
        }
    ],
    "bufferViews" : [
        {
            "buffer" : 0,
            "byteLength" : 6300,
            "byteOffset" : 0
        },
        {
            "buffer" : 0,
            "byteLength" : 6300,
            "byteOffset" : 6300
        },
        {
            "buffer" : 0,
            "byteLength" : 4200,
            "byteOffset" : 12600
        },
        {
            "buffer" : 0,
            "byteLength" : 5304,
            "byteOffset" : 16800
        },
        {
            "buffer" : 0,
            "byteLength" : 6300,
            "byteOffset" : 22104
        },
        {
            "buffer" : 0,
            "byteLength" : 6300,
            "byteOffset" : 28404
        },
        {
            "buffer" : 0,
            "byteLength" : 4200,
            "byteOffset" : 34704
        },
        {
            "buffer" : 0,
            "byteLength" : 5304,
            "byteOffset" : 38904
        },
        {
            "buffer" : 0,
            "byteLength" : 6300,
            "byteOffset" : 44208
        },
        {
            "buffer" : 0,
            "byteLength" : 6300,
            "byteOffset" : 50508
        },
        {
            "buffer" : 0,
            "byteLength" : 4200,
            "byteOffset" : 56808
        },
        {
            "buffer" : 0,
            "byteLength" : 5304,
            "byteOffset" : 61008
        },
        {
            "buffer" : 0,
            "byteLength" : 1056,
            "byteOffset" : 66312
        },
        {
            "buffer" : 0,
            "byteLength" : 1056,
            "byteOffset" : 67368
        },
        {
            "buffer" : 0,
            "byteLength" : 704,
            "byteOffset" : 68424
        },
        {
            "buffer" : 0,
            "byteLength" : 648,
            "byteOffset" : 69128
        },
        {
            "buffer" : 0,
            "byteLength" : 23520,
            "byteOffset" : 69776
        },
        {
            "buffer" : 0,
            "byteLength" : 23520,
            "byteOffset" : 93296
        },
        {
            "buffer" : 0,
            "byteLength" : 15680,
            "byteOffset" : 116816
        },
        {
            "buffer" : 0,
            "byteLength" : 7296,
            "byteOffset" : 132496
        },
        {
            "buffer" : 0,
            "byteLength" : 29136,
            "byteOffset" : 139792
        },
        {
            "buffer" : 0,
            "byteLength" : 29136,
            "byteOffset" : 168928
        },
        {
            "buffer" : 0,
            "byteLength" : 19424,
            "byteOffset" : 198064
        },
        {
            "buffer" : 0,
            "byteLength" : 8880,
            "byteOffset" : 217488
        },
        {
            "buffer" : 0,
            "byteLength" : 29496,
            "byteOffset" : 226368
        },
        {
            "buffer" : 0,
            "byteLength" : 29496,
            "byteOffset" : 255864
        },
        {
            "buffer" : 0,
            "byteLength" : 19664,
            "byteOffset" : 285360
        },
        {
            "buffer" : 0,
            "byteLength" : 9072,
            "byteOffset" : 305024
        }
    ],
    "buffers" : [
        {
            "byteLength" : 314096,
            "uri" : "data:application/octet-stream;base64,"
        }
    ]
}
