{
    "asset" : {
        "generator" : "Khronos glTF Blender I/O v1.7.33",
        "version" : "2.0"
    },
    "scene" : 0,
    "scenes" : [
        {
            "name" : "Scene",
            "nodes" : [
                0,
                1,
                2,
                3,
                4
            ]
        }
    ],
    "nodes" : [
        {
            "mesh" : 0,
            "name" : "Circle",
            "rotation" : [
                0,
                0.7071068286895752,
                0,
                0.7071068286895752
            ],
            "scale" : [
                0.12450914829969406,
                0.12450912594795227,
                0.12450914829969406
            ],
            "translation" : [
                -0.16363543272018433,
                1.6488487720489502,
                1.3784440755844116
            ]
        },
        {
            "mesh" : 1,
            "name" : "Circle.001",
            "rotation" : [
                0,
                0.7071068286895752,
                0,
                0.7071068286895752
            ],
            "scale" : [
                0.12450914829969406,
                0.12450912594795227,
                0.12450914829969406
            ],
            "translation" : [
                -0.11803258210420609,
                1.87229323387146,
                -1.489924430847168
            ]
        },
        {
            "mesh" : 2,
            "name" : "Circle.002",
            "rotation" : [
                0,
                0.32769104838371277,
                0,
                -0.944784939289093
            ],
            "scale" : [
                0.07828615605831146,
                0.07828614115715027,
                0.07828615605831146
            ],
            "translation" : [
                -0.08349774777889252,
                1.6438920497894287,
                -0.2056049108505249
            ]
        },
        {
            "mesh" : 3,
            "name" : "Circle.003",
            "rotation" : [
                0,
                0.7071068286895752,
                0,
                0.7071068286895752
            ],
            "scale" : [
                0.12450914829969406,
                0.12450912594795227,
                0.12450914829969406
            ],
            "translation" : [
                -0.15956948697566986,
                1.8847639560699463,
                2.625946521759033
            ]
        },
        {
            "mesh" : 4,
            "name" : "Text",
            "rotation" : [
                0.5,
                0.5,
                -0.5,
                0.4999999701976776
            ],
            "scale" : [
                0.2702479064464569,
                0.2702479064464569,
                0.2702479064464569
            ],
            "translation" : [
                -0.1643345206975937,
                2.836646318435669,
                0.5347214341163635
            ]
        }
    ],
    "materials" : [
        {
            "doubleSided" : true,
            "name" : "Material.007",
            "pbrMetallicRoughness" : {
                "baseColorFactor" : [
                    0.0850563496351242,
                    0.8000000715255737,
                    0.008318844251334667,
                    1
                ],
                "metallicFactor" : 0,
                "roughnessFactor" : 0.4000000059604645
            }
        },
        {
            "doubleSided" : true,
            "name" : "Material.009",
            "pbrMetallicRoughness" : {
                "baseColorFactor" : [
                    0.20482800900936127,
                    0.8000000715255737,
                    0.009501035325229168,
                    1
                ],
                "metallicFactor" : 0,
                "roughnessFactor" : 0.4000000059604645
            }
        },
        {
            "doubleSided" : true,
            "name" : "Material.008",
            "pbrMetallicRoughness" : {
                "baseColorFactor" : [
                    0.24331113696098328,
                    0.8000000715255737,
                    0.011375200003385544,
                    1
                ],
                "metallicFactor" : 0,
                "roughnessFactor" : 0.4000000059604645
            }
        },
        {
            "doubleSided" : true,
            "name" : "Material.006",
            "pbrMetallicRoughness" : {
                "baseColorFactor" : [
                    0.316522479057312,
                    0.8000000715255737,
                    0.014992596581578255,
                    1
                ],
                "metallicFactor" : 0,
                "roughnessFactor" : 0.4000000059604645
            }
        },
        {
            "doubleSided" : true,
            "name" : "Material.005",
            "pbrMetallicRoughness" : {
                "baseColorFactor" : [
                    0.0020634501706808805,
                    0.0020634501706808805,
                    0.0020634501706808805,
                    1
                ],
                "metallicFactor" : 0,
                "roughnessFactor" : 0.4000000059604645
            }
        }
    ],
    "meshes" : [
        {
            "name" : "Circle.004",
            "primitives" : [
                {
                    "attributes" : {
                        "POSITION" : 0,
                        "NORMAL" : 1
                    },
                    "indices" : 2,
                    "material" : 0
                }
            ]
        },
        {
            "name" : "Circle.009",
            "primitives" : [
                {
                    "attributes" : {
                        "POSITION" : 3,
                        "NORMAL" : 4
                    },
                    "indices" : 5,
                    "material" : 1
                }
            ]
        },
        {
            "name" : "Circle.002",
            "primitives" : [
                {
                    "attributes" : {
                        "POSITION" : 6,
                        "NORMAL" : 7
                    },
                    "indices" : 8,
                    "material" : 2
                }
            ]
        },
        {
            "name" : "Circle.016",
            "primitives" : [
                {
                    "attributes" : {
                        "POSITION" : 9,
                        "NORMAL" : 10
                    },
                    "indices" : 11,
                    "material" : 3
                }
            ]
        },
        {
            "name" : "Text",
            "primitives" : [
                {
                    "attributes" : {
                        "POSITION" : 12,
                        "NORMAL" : 13,
                        "TEXCOORD_0" : 14
                    },
                    "indices" : 15,
                    "material" : 4
                }
            ]
        }
    ],
    "accessors" : [
        {
            "bufferView" : 0,
            "componentType" : 5126,
            "count" : 9033,
            "max" : [
                3.228670597076416,
                4.478662490844727,
                3.7869133949279785
            ],
            "min" : [
                -3.5694382190704346,
                -11.633777618408203,
                -3.7493138313293457
            ],
            "type" : "VEC3"
        },
        {
            "bufferView" : 1,
            "componentType" : 5126,
            "count" : 9033,
            "type" : "VEC3"
        },
        {
            "bufferView" : 2,
            "componentType" : 5123,
            "count" : 9732,
            "type" : "SCALAR"
        },
        {
            "bufferView" : 3,
            "componentType" : 5126,
            "count" : 12922,
            "max" : [
                1.9278130531311035,
                3.397080421447754,
                2.6321403980255127
            ],
            "min" : [
                -3.0199031829833984,
                -13.42838191986084,
                -4.115575313568115
            ],
            "type" : "VEC3"
        },
        {
            "bufferView" : 4,
            "componentType" : 5126,
            "count" : 12922,
            "type" : "VEC3"
        },
        {
            "bufferView" : 5,
            "componentType" : 5123,
            "count" : 13932,
            "type" : "SCALAR"
        },
        {
            "bufferView" : 6,
            "componentType" : 5126,
            "count" : 7151,
            "max" : [
                5.546953201293945,
                6.0293097496032715,
                4.038962364196777
            ],
            "min" : [
                -3.4916529655456543,
                -18.43947410583496,
                -3.4554455280303955
            ],
            "type" : "VEC3"
        },
        {
            "bufferView" : 7,
            "componentType" : 5126,
            "count" : 7151,
            "type" : "VEC3"
        },
        {
            "bufferView" : 8,
            "componentType" : 5123,
            "count" : 7632,
            "type" : "SCALAR"
        },
        {
            "bufferView" : 9,
            "componentType" : 5126,
            "count" : 4972,
            "max" : [
                0.9488050937652588,
                6.927538871765137,
                4.012021541595459
            ],
            "min" : [
                -1.012765645980835,
                -13.528542518615723,
                -3.9916889667510986
            ],
            "type" : "VEC3"
        },
        {
            "bufferView" : 10,
            "componentType" : 5126,
            "count" : 4972,
            "type" : "VEC3"
        },
        {
            "bufferView" : 11,
            "componentType" : 5123,
            "count" : 5532,
            "type" : "SCALAR"
        },
        {
            "bufferView" : 12,
            "componentType" : 5126,
            "count" : 4109,
            "max" : [
                2.761017084121704,
                0.08999998867511749,
                0.019014526158571243
            ],
            "min" : [
                0.03797976300120354,
                -0.08999998867511749,
                -0.7010059952735901
            ],
            "type" : "VEC3"
        },
        {
            "bufferView" : 13,
            "componentType" : 5126,
            "count" : 4109,
            "type" : "VEC3"
        },
        {
            "bufferView" : 14,
            "componentType" : 5126,
            "count" : 4109,
            "type" : "VEC2"
        },
        {
            "bufferView" : 15,
            "componentType" : 5123,
            "count" : 7368,
            "type" : "SCALAR"
        }
    ],
    "bufferViews" : [
        {
            "buffer" : 0,
            "byteLength" : 108396,
            "byteOffset" : 0
        },
        {
            "buffer" : 0,
            "byteLength" : 108396,
            "byteOffset" : 108396
        },
        {
            "buffer" : 0,
            "byteLength" : 19464,
            "byteOffset" : 216792
        },
        {
            "buffer" : 0,
            "byteLength" : 155064,
            "byteOffset" : 236256
        },
        {
            "buffer" : 0,
            "byteLength" : 155064,
            "byteOffset" : 391320
        },
        {
            "buffer" : 0,
            "byteLength" : 27864,
            "byteOffset" : 546384
        },
        {
            "buffer" : 0,
            "byteLength" : 85812,
            "byteOffset" : 574248
        },
        {
            "buffer" : 0,
            "byteLength" : 85812,
            "byteOffset" : 660060
        },
        {
            "buffer" : 0,
            "byteLength" : 15264,
            "byteOffset" : 745872
        },
        {
            "buffer" : 0,
            "byteLength" : 59664,
            "byteOffset" : 761136
        },
        {
            "buffer" : 0,
            "byteLength" : 59664,
            "byteOffset" : 820800
        },
        {
            "buffer" : 0,
            "byteLength" : 11064,
            "byteOffset" : 880464
        },
        {
            "buffer" : 0,
            "byteLength" : 49308,
            "byteOffset" : 891528
        },
        {
            "buffer" : 0,
            "byteLength" : 49308,
            "byteOffset" : 940836
        },
        {
            "buffer" : 0,
            "byteLength" : 32872,
            "byteOffset" : 990144
        },
        {
            "buffer" : 0,
            "byteLength" : 14736,
            "byteOffset" : 1023016
        }
    ],
    "buffers" : [
        {
            "byteLength" : 1037752,
            "uri" : "data:application/octet-stream;base64,"
        }
    ]
}
