{
    "asset" : {
        "generator" : "Khronos glTF Blender I/O v1.7.33",
        "version" : "2.0"
    },
    "scene" : 0,
    "scenes" : [
        {
            "name" : "Scene",
            "nodes" : [
                0,
                1,
                2,
                3
            ]
        }
    ],
    "nodes" : [
        {
            "mesh" : 0,
            "name" : "Cylinder",
            "scale" : [
                0.17340876162052155,
                0.2671249210834503,
                0.17340876162052155
            ],
            "translation" : [
                0,
                1.4442403316497803,
                0
            ]
        },
        {
            "mesh" : 1,
            "name" : "Cylinder.001",
            "scale" : [
                0.3776310086250305,
                0.11353535950183868,
                0.3776310086250305
            ],
            "translation" : [
                0,
                1.0552995204925537,
                0
            ]
        },
        {
            "mesh" : 2,
            "name" : "Cylinder.002",
            "scale" : [
                1,
                0.8258254528045654,
                1
            ],
            "translation" : [
                0,
                0.49142181873321533,
                0
            ]
        },
        {
            "mesh" : 3,
            "name" : "Text",
            "rotation" : [
                0.5,
                0.5,
                -0.5,
                0.4999999701976776
            ],
            "scale" : [
                0.3532560169696808,
                0.3532560169696808,
                0.3532560169696808
            ],
            "translation" : [
                0,
                1.9342198371887207,
                0.5161253809928894
            ]
        }
    ],
    "materials" : [
        {
            "doubleSided" : true,
            "name" : "Material.001",
            "pbrMetallicRoughness" : {
                "baseColorFactor" : [
                    0.05496877431869507,
                    0.05496877431869507,
                    0.05496877431869507,
                    1
                ],
                "metallicFactor" : 0,
                "roughnessFactor" : 0.4000000059604645
            }
        },
        {
            "doubleSided" : true,
            "name" : "Material.002",
            "pbrMetallicRoughness" : {
                "baseColorFactor" : [
                    0.040485356003046036,
                    0.04896329715847969,
                    0.8000000715255737,
                    1
                ],
                "metallicFactor" : 0,
                "roughnessFactor" : 0.4000000059604645
            }
        },
        {
            "doubleSided" : true,
            "name" : "Material.003",
            "pbrMetallicRoughness" : {
                "baseColorFactor" : [
                    0.800000011920929,
                    0.800000011920929,
                    0.800000011920929,
                    1
                ],
                "metallicFactor" : 0,
                "roughnessFactor" : 0.5
            }
        },
        {
            "doubleSided" : true,
            "name" : "Material.004",
            "pbrMetallicRoughness" : {
                "baseColorFactor" : [
                    0.02909935638308525,
                    0.02909935638308525,
                    0.02909935638308525,
                    1
                ],
                "metallicFactor" : 0,
                "roughnessFactor" : 0.4000000059604645
            }
        }
    ],
    "meshes" : [
        {
            "name" : "Cylinder.001",
            "primitives" : [
                {
                    "attributes" : {
                        "POSITION" : 0,
                        "NORMAL" : 1,
                        "TEXCOORD_0" : 2
                    },
                    "indices" : 3,
                    "material" : 0
                }
            ]
        },
        {
            "name" : "Cylinder.003",
            "primitives" : [
                {
                    "attributes" : {
                        "POSITION" : 4,
                        "NORMAL" : 5,
                        "TEXCOORD_0" : 6
                    },
                    "indices" : 7,
                    "material" : 1
                }
            ]
        },
        {
            "name" : "Cylinder.004",
            "primitives" : [
                {
                    "attributes" : {
                        "POSITION" : 8,
                        "NORMAL" : 9,
                        "TEXCOORD_0" : 10
                    },
                    "indices" : 11,
                    "material" : 2
                }
            ]
        },
        {
            "name" : "Text",
            "primitives" : [
                {
                    "attributes" : {
                        "POSITION" : 12,
                        "NORMAL" : 13,
                        "TEXCOORD_0" : 14
                    },
                    "indices" : 15,
                    "material" : 3
                }
            ]
        }
    ],
    "accessors" : [
        {
            "bufferView" : 0,
            "componentType" : 5126,
            "count" : 642,
            "max" : [
                1,
                1,
                1
            ],
            "min" : [
                -1,
                -1.4717042446136475,
                -1
            ],
            "type" : "VEC3"
        },
        {
            "bufferView" : 1,
            "componentType" : 5126,
            "count" : 642,
            "type" : "VEC3"
        },
        {
            "bufferView" : 2,
            "componentType" : 5126,
            "count" : 642,
            "type" : "VEC2"
        },
        {
            "bufferView" : 3,
            "componentType" : 5123,
            "count" : 2292,
            "type" : "SCALAR"
        },
        {
            "bufferView" : 4,
            "componentType" : 5126,
            "count" : 229,
            "max" : [
                1,
                1,
                1
            ],
            "min" : [
                -1,
                -1.2378692626953125,
                -1
            ],
            "type" : "VEC3"
        },
        {
            "bufferView" : 5,
            "componentType" : 5126,
            "count" : 229,
            "type" : "VEC3"
        },
        {
            "bufferView" : 6,
            "componentType" : 5126,
            "count" : 229,
            "type" : "VEC2"
        },
        {
            "bufferView" : 7,
            "componentType" : 5123,
            "count" : 948,
            "type" : "SCALAR"
        },
        {
            "bufferView" : 8,
            "componentType" : 5126,
            "count" : 671,
            "max" : [
                0.04100000113248825,
                0.6000003814697266,
                0.04100000113248825
            ],
            "min" : [
                -0.04100000113248825,
                -0.6000003814697266,
                -0.04100000113248825
            ],
            "type" : "VEC3"
        },
        {
            "bufferView" : 9,
            "componentType" : 5126,
            "count" : 671,
            "type" : "VEC3"
        },
        {
            "bufferView" : 10,
            "componentType" : 5126,
            "count" : 671,
            "type" : "VEC2"
        },
        {
            "bufferView" : 11,
            "componentType" : 5123,
            "count" : 2202,
            "type" : "SCALAR"
        },
        {
            "bufferView" : 12,
            "componentType" : 5126,
            "count" : 3480,
            "max" : [
                3.574000358581543,
                0.03999999910593033,
                0.23000000417232513
            ],
            "min" : [
                0.07600000500679016,
                -0.03999999910593033,
                -0.6820000410079956
            ],
            "type" : "VEC3"
        },
        {
            "bufferView" : 13,
            "componentType" : 5126,
            "count" : 3480,
            "type" : "VEC3"
        },
        {
            "bufferView" : 14,
            "componentType" : 5126,
            "count" : 3480,
            "type" : "VEC2"
        },
        {
            "bufferView" : 15,
            "componentType" : 5123,
            "count" : 6156,
            "type" : "SCALAR"
        }
    ],
    "bufferViews" : [
        {
            "buffer" : 0,
            "byteLength" : 7704,
            "byteOffset" : 0
        },
        {
            "buffer" : 0,
            "byteLength" : 7704,
            "byteOffset" : 7704
        },
        {
            "buffer" : 0,
            "byteLength" : 5136,
            "byteOffset" : 15408
        },
        {
            "buffer" : 0,
            "byteLength" : 4584,
            "byteOffset" : 20544
        },
        {
            "buffer" : 0,
            "byteLength" : 2748,
            "byteOffset" : 25128
        },
        {
            "buffer" : 0,
            "byteLength" : 2748,
            "byteOffset" : 27876
        },
        {
            "buffer" : 0,
            "byteLength" : 1832,
            "byteOffset" : 30624
        },
        {
            "buffer" : 0,
            "byteLength" : 1896,
            "byteOffset" : 32456
        },
        {
            "buffer" : 0,
            "byteLength" : 8052,
            "byteOffset" : 34352
        },
        {
            "buffer" : 0,
            "byteLength" : 8052,
            "byteOffset" : 42404
        },
        {
            "buffer" : 0,
            "byteLength" : 5368,
            "byteOffset" : 50456
        },
        {
            "buffer" : 0,
            "byteLength" : 4404,
            "byteOffset" : 55824
        },
        {
            "buffer" : 0,
            "byteLength" : 41760,
            "byteOffset" : 60228
        },
        {
            "buffer" : 0,
            "byteLength" : 41760,
            "byteOffset" : 101988
        },
        {
            "buffer" : 0,
            "byteLength" : 27840,
            "byteOffset" : 143748
        },
        {
            "buffer" : 0,
            "byteLength" : 12312,
            "byteOffset" : 171588
        }
    ],
    "buffers" : [
        {
            "byteLength" : 183900,
            "uri" : "data:application/octet-stream;base64,"
        }
    ]
}
