{
    "asset" : {
        "generator" : "Khronos glTF Blender I/O v1.7.33",
        "version" : "2.0"
    },
    "scene" : 0,
    "scenes" : [
        {
            "name" : "Scene",
            "nodes" : [
                0,
                1,
                2,
                3,
                4,
                5,
                6,
                7,
                8,
                9
            ]
        }
    ],
    "nodes" : [
        {
            "mesh" : 0,
            "name" : "Cube",
            "rotation" : [
                -0.5,
                0.5,
                -0.4999999701976776,
                0.5
            ],
            "scale" : [
                0.30000001192092896,
                0.30000001192092896,
                0.30000001192092896
            ],
            "translation" : [
                0.007430412340909243,
                0.7287763357162476,
                -0.07547983527183533
            ]
        },
        {
            "mesh" : 1,
            "name" : "Spiral",
            "rotation" : [
                -0.5,
                0.5,
                -0.4999999701976776,
                0.5
            ],
            "scale" : [
                0.28234413266181946,
                0.28234413266181946,
                0.28234413266181946
            ],
            "translation" : [
                0.007430430501699448,
                0.7287763357162476,
                0.1878354847431183
            ]
        },
        {
            "mesh" : 2,
            "name" : "Cylinder.085",
            "rotation" : [
                -0.005793791729956865,
                0.6559702157974243,
                -0.006952556315809488,
                -0.7547324895858765
            ],
            "scale" : [
                -0.015462273731827736,
                0.008522611111402512,
                0.006384988781064749
            ],
            "translation" : [
                0.010335087776184082,
                0.11774635314941406,
                0.2873554527759552
            ]
        },
        {
            "mesh" : 3,
            "name" : "Text.002",
            "rotation" : [
                0.4925574064254761,
                0.5073335766792297,
                -0.5073334574699402,
                0.49255722761154175
            ],
            "scale" : [
                0.06831678003072739,
                0.06831678003072739,
                0.06831678003072739
            ],
            "translation" : [
                0.01606191322207451,
                0.18028485774993896,
                0.5431857109069824
            ]
        },
        {
            "mesh" : 4,
            "name" : "Cylinder.001",
            "rotation" : [
                0.6559703350067139,
                0.005793652031570673,
                0.7547325491905212,
                -0.0069526368752121925
            ],
            "scale" : [
                -0.015462273731827736,
                0.008522611111402512,
                0.006384987849742174
            ],
            "translation" : [
                0.010335087776184082,
                0.2318211793899536,
                -0.40637409687042236
            ]
        },
        {
            "mesh" : 5,
            "name" : "Text.001",
            "rotation" : [
                0.4925574064254761,
                0.5073335766792297,
                -0.5073334574699402,
                0.49255722761154175
            ],
            "scale" : [
                0.06831678003072739,
                0.06831678003072739,
                0.06831678003072739
            ],
            "translation" : [
                0.01606191322207451,
                0.164573073387146,
                -0.4438866376876831
            ]
        },
        {
            "mesh" : 6,
            "name" : "Cylinder.002",
            "rotation" : [
                -0.5377732515335083,
                0.46875712275505066,
                0.4589248597621918,
                -0.5295796990394592
            ],
            "scale" : [
                -0.015462277457118034,
                0.008522611111402512,
                0.006384988781064749
            ],
            "translation" : [
                0.010335087776184082,
                0.6112323999404907,
                0.3223205804824829
            ]
        },
        {
            "mesh" : 7,
            "name" : "Text.003",
            "rotation" : [
                0.4925574064254761,
                0.5073335766792297,
                -0.5073334574699402,
                0.49255722761154175
            ],
            "scale" : [
                0.06831678003072739,
                0.06831678003072739,
                0.06831678003072739
            ],
            "translation" : [
                0.01606191322207451,
                0.6737709045410156,
                0.5389076471328735
            ]
        },
        {
            "mesh" : 8,
            "name" : "Cylinder.003",
            "rotation" : [
                -0.005793791729956865,
                0.6559702157974243,
                -0.006952556315809488,
                -0.7547324895858765
            ],
            "scale" : [
                -0.015462273731827736,
                0.008522611111402512,
                0.006384988781064749
            ],
            "translation" : [
                0.010335087776184082,
                1.1245890855789185,
                -0.06972181797027588
            ]
        },
        {
            "mesh" : 9,
            "name" : "Text.004",
            "rotation" : [
                0.4925574064254761,
                0.5073335766792297,
                -0.5073334574699402,
                0.49255722761154175
            ],
            "scale" : [
                0.05716431513428688,
                0.05716431513428688,
                0.05716431885957718
            ],
            "translation" : [
                0.001761946827173233,
                1.3738197088241577,
                0.05245056748390198
            ]
        }
    ],
    "materials" : [
        {
            "doubleSided" : true,
            "name" : "Material",
            "pbrMetallicRoughness" : {
                "baseColorFactor" : [
                    1,
                    0.9932873249053955,
                    0.8941044807434082,
                    1
                ],
                "metallicFactor" : 0,
                "roughnessFactor" : 0.4000000059604645
            }
        },
        {
            "doubleSided" : true,
            "name" : "Material.002",
            "pbrMetallicRoughness" : {
                "baseColorFactor" : [
                    0.8000000715255737,
                    0.0901915580034256,
                    0.005073689855635166,
                    1
                ],
                "metallicFactor" : 0.659999668598175,
                "roughnessFactor" : 0.25
            }
        },
        {
            "doubleSided" : true,
            "name" : "Material.057",
            "pbrMetallicRoughness" : {
                "baseColorFactor" : [
                    0.5488517880439758,
                    0.015441509895026684,
                    0.32753798365592957,
                    1
                ],
                "metallicFactor" : 0,
                "roughnessFactor" : 0.5
            }
        },
        {
            "doubleSided" : true,
            "name" : "Material.060",
            "pbrMetallicRoughness" : {
                "baseColorFactor" : [
                    0.0015474535757675767,
                    0.0015474535757675767,
                    0.0015474535757675767,
                    1
                ],
                "metallicFactor" : 0,
                "roughnessFactor" : 0.4000000059604645
            }
        }
    ],
    "meshes" : [
        {
            "name" : "Cube",
            "primitives" : [
                {
                    "attributes" : {
                        "POSITION" : 0,
                        "NORMAL" : 1,
                        "TEXCOORD_0" : 2
                    },
                    "indices" : 3,
                    "material" : 0
                }
            ]
        },
        {
            "name" : "Spiral",
            "primitives" : [
                {
                    "attributes" : {
                        "POSITION" : 4,
                        "NORMAL" : 5,
                        "TEXCOORD_0" : 6
                    },
                    "indices" : 7,
                    "material" : 1
                }
            ]
        },
        {
            "name" : "Cylinder.065",
            "primitives" : [
                {
                    "attributes" : {
                        "POSITION" : 8,
                        "NORMAL" : 9
                    },
                    "indices" : 10,
                    "material" : 2
                }
            ]
        },
        {
            "name" : "Text.003",
            "primitives" : [
                {
                    "attributes" : {
                        "POSITION" : 11,
                        "NORMAL" : 12,
                        "TEXCOORD_0" : 13
                    },
                    "indices" : 14,
                    "material" : 3
                }
            ]
        },
        {
            "name" : "Cylinder.001",
            "primitives" : [
                {
                    "attributes" : {
                        "POSITION" : 15,
                        "NORMAL" : 16
                    },
                    "indices" : 10,
                    "material" : 2
                }
            ]
        },
        {
            "name" : "Text.002",
            "primitives" : [
                {
                    "attributes" : {
                        "POSITION" : 17,
                        "NORMAL" : 18,
                        "TEXCOORD_0" : 19
                    },
                    "indices" : 14,
                    "material" : 3
                }
            ]
        },
        {
            "name" : "Cylinder.002",
            "primitives" : [
                {
                    "attributes" : {
                        "POSITION" : 20,
                        "NORMAL" : 21
                    },
                    "indices" : 10,
                    "material" : 2
                }
            ]
        },
        {
            "name" : "Text.004",
            "primitives" : [
                {
                    "attributes" : {
                        "POSITION" : 22,
                        "NORMAL" : 23,
                        "TEXCOORD_0" : 24
                    },
                    "indices" : 25,
                    "material" : 3
                }
            ]
        },
        {
            "name" : "Cylinder.003",
            "primitives" : [
                {
                    "attributes" : {
                        "POSITION" : 26,
                        "NORMAL" : 27
                    },
                    "indices" : 10,
                    "material" : 2
                }
            ]
        },
        {
            "name" : "Text.005",
            "primitives" : [
                {
                    "attributes" : {
                        "POSITION" : 28,
                        "NORMAL" : 29,
                        "TEXCOORD_0" : 30
                    },
                    "indices" : 31,
                    "material" : 3
                }
            ]
        }
    ],
    "accessors" : [
        {
            "bufferView" : 0,
            "componentType" : 5126,
            "count" : 24,
            "max" : [
                1,
                1,
                1
            ],
            "min" : [
                -1,
                -1,
                -1
            ],
            "type" : "VEC3"
        },
        {
            "bufferView" : 1,
            "componentType" : 5126,
            "count" : 24,
            "type" : "VEC3"
        },
        {
            "bufferView" : 2,
            "componentType" : 5126,
            "count" : 24,
            "type" : "VEC2"
        },
        {
            "bufferView" : 3,
            "componentType" : 5123,
            "count" : 36,
            "type" : "SCALAR"
        },
        {
            "bufferView" : 4,
            "componentType" : 5126,
            "count" : 10725,
            "max" : [
                2.4599735736846924,
                1.884833574295044,
                1.174999713897705
            ],
            "min" : [
                -1.1749904155731201,
                -0.06240168586373329,
                -1.1749998331069946
            ],
            "type" : "VEC3"
        },
        {
            "bufferView" : 5,
            "componentType" : 5126,
            "count" : 10725,
            "type" : "VEC3"
        },
        {
            "bufferView" : 6,
            "componentType" : 5126,
            "count" : 10725,
            "type" : "VEC2"
        },
        {
            "bufferView" : 7,
            "componentType" : 5123,
            "count" : 60372,
            "type" : "SCALAR"
        },
        {
            "bufferView" : 8,
            "componentType" : 5126,
            "count" : 128,
            "max" : [
                2.3222715854644775,
                20.935077667236328,
                2.3222718238830566
            ],
            "min" : [
                -2.3222715854644775,
                -6.670833110809326,
                -2.3222711086273193
            ],
            "type" : "VEC3"
        },
        {
            "bufferView" : 9,
            "componentType" : 5126,
            "count" : 128,
            "type" : "VEC3"
        },
        {
            "bufferView" : 10,
            "componentType" : 5123,
            "count" : 756,
            "type" : "SCALAR"
        },
        {
            "bufferView" : 11,
            "componentType" : 5126,
            "count" : 3184,
            "max" : [
                3.321000099182129,
                0.07000000029802322,
                0.019014526158571243
            ],
            "min" : [
                0.03797976300120354,
                -0.07000000029802322,
                -0.7010059952735901
            ],
            "type" : "VEC3"
        },
        {
            "bufferView" : 12,
            "componentType" : 5126,
            "count" : 3184,
            "type" : "VEC3"
        },
        {
            "bufferView" : 13,
            "componentType" : 5126,
            "count" : 3184,
            "type" : "VEC2"
        },
        {
            "bufferView" : 14,
            "componentType" : 5123,
            "count" : 5700,
            "type" : "SCALAR"
        },
        {
            "bufferView" : 15,
            "componentType" : 5126,
            "count" : 128,
            "max" : [
                2.3222715854644775,
                20.935077667236328,
                2.3222718238830566
            ],
            "min" : [
                -2.3222715854644775,
                -6.670833110809326,
                -2.3222711086273193
            ],
            "type" : "VEC3"
        },
        {
            "bufferView" : 16,
            "componentType" : 5126,
            "count" : 128,
            "type" : "VEC3"
        },
        {
            "bufferView" : 17,
            "componentType" : 5126,
            "count" : 3184,
            "max" : [
                3.321000099182129,
                0.07000000029802322,
                0.019014526158571243
            ],
            "min" : [
                0.03797976300120354,
                -0.07000000029802322,
                -0.7010059952735901
            ],
            "type" : "VEC3"
        },
        {
            "bufferView" : 18,
            "componentType" : 5126,
            "count" : 3184,
            "type" : "VEC3"
        },
        {
            "bufferView" : 19,
            "componentType" : 5126,
            "count" : 3184,
            "type" : "VEC2"
        },
        {
            "bufferView" : 20,
            "componentType" : 5126,
            "count" : 128,
            "max" : [
                2.3222715854644775,
                20.935077667236328,
                2.3222718238830566
            ],
            "min" : [
                -2.3222715854644775,
                -6.670833110809326,
                -2.3222711086273193
            ],
            "type" : "VEC3"
        },
        {
            "bufferView" : 21,
            "componentType" : 5126,
            "count" : 128,
            "type" : "VEC3"
        },
        {
            "bufferView" : 22,
            "componentType" : 5126,
            "count" : 2268,
            "max" : [
                2.1124014854431152,
                0.07000000029802322,
                0.019017092883586884
            ],
            "min" : [
                0.03797976300120354,
                -0.07000000029802322,
                -0.7010059952735901
            ],
            "type" : "VEC3"
        },
        {
            "bufferView" : 23,
            "componentType" : 5126,
            "count" : 2268,
            "type" : "VEC3"
        },
        {
            "bufferView" : 24,
            "componentType" : 5126,
            "count" : 2268,
            "type" : "VEC2"
        },
        {
            "bufferView" : 25,
            "componentType" : 5123,
            "count" : 4164,
            "type" : "SCALAR"
        },
        {
            "bufferView" : 26,
            "componentType" : 5126,
            "count" : 128,
            "max" : [
                2.3222715854644775,
                20.935077667236328,
                2.3222718238830566
            ],
            "min" : [
                -2.3222715854644775,
                -6.670833110809326,
                -2.3222711086273193
            ],
            "type" : "VEC3"
        },
        {
            "bufferView" : 27,
            "componentType" : 5126,
            "count" : 128,
            "type" : "VEC3"
        },
        {
            "bufferView" : 28,
            "componentType" : 5126,
            "count" : 5982,
            "max" : [
                4.6544013023376465,
                0.07000000029802322,
                1.019006609916687
            ],
            "min" : [
                0.03797976300120354,
                -0.07000000029802322,
                -0.7010059952735901
            ],
            "type" : "VEC3"
        },
        {
            "bufferView" : 29,
            "componentType" : 5126,
            "count" : 5982,
            "type" : "VEC3"
        },
        {
            "bufferView" : 30,
            "componentType" : 5126,
            "count" : 5982,
            "type" : "VEC2"
        },
        {
            "bufferView" : 31,
            "componentType" : 5123,
            "count" : 10896,
            "type" : "SCALAR"
        }
    ],
    "bufferViews" : [
        {
            "buffer" : 0,
            "byteLength" : 288,
            "byteOffset" : 0
        },
        {
            "buffer" : 0,
            "byteLength" : 288,
            "byteOffset" : 288
        },
        {
            "buffer" : 0,
            "byteLength" : 192,
            "byteOffset" : 576
        },
        {
            "buffer" : 0,
            "byteLength" : 72,
            "byteOffset" : 768
        },
        {
            "buffer" : 0,
            "byteLength" : 128700,
            "byteOffset" : 840
        },
        {
            "buffer" : 0,
            "byteLength" : 128700,
            "byteOffset" : 129540
        },
        {
            "buffer" : 0,
            "byteLength" : 85800,
            "byteOffset" : 258240
        },
        {
            "buffer" : 0,
            "byteLength" : 120744,
            "byteOffset" : 344040
        },
        {
            "buffer" : 0,
            "byteLength" : 1536,
            "byteOffset" : 464784
        },
        {
            "buffer" : 0,
            "byteLength" : 1536,
            "byteOffset" : 466320
        },
        {
            "buffer" : 0,
            "byteLength" : 1512,
            "byteOffset" : 467856
        },
        {
            "buffer" : 0,
            "byteLength" : 38208,
            "byteOffset" : 469368
        },
        {
            "buffer" : 0,
            "byteLength" : 38208,
            "byteOffset" : 507576
        },
        {
            "buffer" : 0,
            "byteLength" : 25472,
            "byteOffset" : 545784
        },
        {
            "buffer" : 0,
            "byteLength" : 11400,
            "byteOffset" : 571256
        },
        {
            "buffer" : 0,
            "byteLength" : 1536,
            "byteOffset" : 582656
        },
        {
            "buffer" : 0,
            "byteLength" : 1536,
            "byteOffset" : 584192
        },
        {
            "buffer" : 0,
            "byteLength" : 38208,
            "byteOffset" : 585728
        },
        {
            "buffer" : 0,
            "byteLength" : 38208,
            "byteOffset" : 623936
        },
        {
            "buffer" : 0,
            "byteLength" : 25472,
            "byteOffset" : 662144
        },
        {
            "buffer" : 0,
            "byteLength" : 1536,
            "byteOffset" : 687616
        },
        {
            "buffer" : 0,
            "byteLength" : 1536,
            "byteOffset" : 689152
        },
        {
            "buffer" : 0,
            "byteLength" : 27216,
            "byteOffset" : 690688
        },
        {
            "buffer" : 0,
            "byteLength" : 27216,
            "byteOffset" : 717904
        },
        {
            "buffer" : 0,
            "byteLength" : 18144,
            "byteOffset" : 745120
        },
        {
            "buffer" : 0,
            "byteLength" : 8328,
            "byteOffset" : 763264
        },
        {
            "buffer" : 0,
            "byteLength" : 1536,
            "byteOffset" : 771592
        },
        {
            "buffer" : 0,
            "byteLength" : 1536,
            "byteOffset" : 773128
        },
        {
            "buffer" : 0,
            "byteLength" : 71784,
            "byteOffset" : 774664
        },
        {
            "buffer" : 0,
            "byteLength" : 71784,
            "byteOffset" : 846448
        },
        {
            "buffer" : 0,
            "byteLength" : 47856,
            "byteOffset" : 918232
        },
        {
            "buffer" : 0,
            "byteLength" : 21792,
            "byteOffset" : 966088
        }
    ],
    "buffers" : [
        {
            "byteLength" : 987880,
            "uri" : "data:application/octet-stream;base64,"
        }
    ]
}
