{
    "asset" : {
        "generator" : "Khronos glTF Blender I/O v1.7.33",
        "version" : "2.0"
    },
    "scene" : 0,
    "scenes" : [
        {
            "name" : "Scene",
            "nodes" : [
                0
            ]
        }
    ],
    "nodes" : [
        {
            "mesh" : 0,
            "name" : "leg.001",
            "rotation" : [
                0,
                0.6344467401504517,
                0,
                0.7729665637016296
            ],
            "scale" : [
                3.1027591228485107,
                3.1027591228485107,
                3.1027591228485107
            ],
            "translation" : [
                0.293120414018631,
                0.4397287666797638,
                -0.04546171426773071
            ]
        }
    ],
    "materials" : [
        {
            "doubleSided" : true,
            "name" : "Material.001",
            "pbrMetallicRoughness" : {
                "baseColorFactor" : [
                    1,
                    0.7168722152709961,
                    0.6698787212371826,
                    1
                ],
                "metallicFactor" : 0,
                "roughnessFactor" : 0.4000000059604645
            }
        }
    ],
    "meshes" : [
        {
            "name" : "Plane.001",
            "primitives" : [
                {
                    "attributes" : {
                        "POSITION" : 0,
                        "NORMAL" : 1
                    },
                    "indices" : 2,
                    "material" : 0
                }
            ]
        }
    ],
    "accessors" : [
        {
            "bufferView" : 0,
            "componentType" : 5126,
            "count" : 1869,
            "max" : [
                0.17515340447425842,
                0.4246593713760376,
                0.3085958659648895
            ],
            "min" : [
                -0.22824841737747192,
                -0.10480864346027374,
                -0.5601509809494019
            ],
            "type" : "VEC3"
        },
        {
            "bufferView" : 1,
            "componentType" : 5126,
            "count" : 1869,
            "type" : "VEC3"
        },
        {
            "bufferView" : 2,
            "componentType" : 5123,
            "count" : 11148,
            "type" : "SCALAR"
        }
    ],
    "bufferViews" : [
        {
            "buffer" : 0,
            "byteLength" : 22428,
            "byteOffset" : 0
        },
        {
            "buffer" : 0,
            "byteLength" : 22428,
            "byteOffset" : 22428
        },
        {
            "buffer" : 0,
            "byteLength" : 22296,
            "byteOffset" : 44856
        }
    ],
    "buffers" : [
        {
            "byteLength" : 67152,
            "uri" : "data:application/octet-stream;base64,"
        }
    ]
}
