{
    "asset" : {
        "generator" : "Khronos glTF Blender I/O v1.7.33",
        "version" : "2.0"
    },
    "scene" : 0,
    "scenes" : [
        {
            "name" : "Scene",
            "nodes" : [
                0,
                1,
                2,
                3,
                4,
                5
            ]
        }
    ],
    "nodes" : [
        {
            "mesh" : 0,
            "name" : "BezierCurve",
            "rotation" : [
                0.5,
                0.5,
                0.4999999701976776,
                0.5
            ],
            "scale" : [
                1.0078212022781372,
                1.0078212022781372,
                1.0078212022781372
            ],
            "translation" : [
                0.020755961537361145,
                1.1304469108581543,
                0.011237578466534615
            ]
        },
        {
            "mesh" : 1,
            "name" : "Cylinder",
            "scale" : [
                0.016835805028676987,
                -0.05946953594684601,
                0.016835805028676987
            ],
            "translation" : [
                -0.14245350658893585,
                3.4526567459106445,
                0.046756092458963394
            ]
        },
        {
            "mesh" : 2,
            "name" : "Cylinder.001",
            "scale" : [
                0.016835805028676987,
                -0.05946953594684601,
                0.016835805028676987
            ],
            "translation" : [
                -0.14245350658893585,
                3.4526567459106445,
                -0.015985943377017975
            ]
        },
        {
            "mesh" : 3,
            "name" : "Cylinder.002",
            "scale" : [
                0.016835805028676987,
                -0.05946953594684601,
                0.016835805028676987
            ],
            "translation" : [
                -0.21114519238471985,
                3.4526567459106445,
                -0.015985943377017975
            ]
        },
        {
            "mesh" : 4,
            "name" : "Cylinder.003",
            "scale" : [
                0.016835805028676987,
                -0.05946953594684601,
                0.016835805028676987
            ],
            "translation" : [
                -0.21114519238471985,
                3.4526567459106445,
                0.05209914222359657
            ]
        },
        {
            "mesh" : 5,
            "name" : "Text",
            "rotation" : [
                -0.7071068286895752,
                0,
                0,
                -0.7071068286895752
            ],
            "scale" : [
                0.14498163759708405,
                0.14498163759708405,
                0.14498163759708405
            ],
            "translation" : [
                -0.36698654294013977,
                2.295576572418213,
                0.027658618986606598
            ]
        }
    ],
    "materials" : [
        {
            "doubleSided" : true,
            "name" : "Material.001",
            "pbrMetallicRoughness" : {
                "baseColorFactor" : [
                    0.15873920917510986,
                    0.8000000715255737,
                    0.09494821727275848,
                    1
                ],
                "metallicFactor" : 0,
                "roughnessFactor" : 0.4000000059604645
            }
        },
        {
            "doubleSided" : true,
            "name" : "Material.002",
            "pbrMetallicRoughness" : {
                "baseColorFactor" : [
                    0,
                    0,
                    0,
                    1
                ],
                "metallicFactor" : 0,
                "roughnessFactor" : 0.4000000059604645
            }
        },
        {
            "doubleSided" : true,
            "name" : "Material",
            "pbrMetallicRoughness" : {
                "baseColorFactor" : [
                    0.0025794445537030697,
                    0.0025794445537030697,
                    0.0025794445537030697,
                    1
                ],
                "metallicFactor" : 0,
                "roughnessFactor" : 0.4000000059604645
            }
        }
    ],
    "meshes" : [
        {
            "name" : "BezierCurve",
            "primitives" : [
                {
                    "attributes" : {
                        "POSITION" : 0,
                        "NORMAL" : 1,
                        "TEXCOORD_0" : 2
                    },
                    "indices" : 3,
                    "material" : 0
                },
                {
                    "attributes" : {
                        "POSITION" : 4,
                        "NORMAL" : 5,
                        "TEXCOORD_0" : 6
                    },
                    "indices" : 7,
                    "material" : 1
                },
                {
                    "attributes" : {
                        "POSITION" : 8,
                        "NORMAL" : 9,
                        "TEXCOORD_0" : 10
                    },
                    "indices" : 11
                }
            ]
        },
        {
            "name" : "Cylinder.005",
            "primitives" : [
                {
                    "attributes" : {
                        "POSITION" : 12,
                        "NORMAL" : 13,
                        "TEXCOORD_0" : 14
                    },
                    "indices" : 15
                }
            ]
        },
        {
            "name" : "Cylinder.006",
            "primitives" : [
                {
                    "attributes" : {
                        "POSITION" : 16,
                        "NORMAL" : 17,
                        "TEXCOORD_0" : 18
                    },
                    "indices" : 15
                }
            ]
        },
        {
            "name" : "Cylinder.007",
            "primitives" : [
                {
                    "attributes" : {
                        "POSITION" : 19,
                        "NORMAL" : 20,
                        "TEXCOORD_0" : 21
                    },
                    "indices" : 15
                }
            ]
        },
        {
            "name" : "Cylinder.008",
            "primitives" : [
                {
                    "attributes" : {
                        "POSITION" : 22,
                        "NORMAL" : 23,
                        "TEXCOORD_0" : 24
                    },
                    "indices" : 15
                }
            ]
        },
        {
            "name" : "Text",
            "primitives" : [
                {
                    "attributes" : {
                        "POSITION" : 25,
                        "NORMAL" : 26,
                        "TEXCOORD_0" : 27
                    },
                    "indices" : 28,
                    "material" : 2
                }
            ]
        }
    ],
    "accessors" : [
        {
            "bufferView" : 0,
            "componentType" : 5126,
            "count" : 4954,
            "max" : [
                1.0194364786148071,
                0.06074252724647522,
                -0.007071024272590876
            ],
            "min" : [
                -1.0919238328933716,
                -0.06000000238418579,
                -0.3507753312587738
            ],
            "type" : "VEC3"
        },
        {
            "bufferView" : 1,
            "componentType" : 5126,
            "count" : 4954,
            "type" : "VEC3"
        },
        {
            "bufferView" : 2,
            "componentType" : 5126,
            "count" : 4954,
            "type" : "VEC2"
        },
        {
            "bufferView" : 3,
            "componentType" : 5123,
            "count" : 7464,
            "type" : "SCALAR"
        },
        {
            "bufferView" : 4,
            "componentType" : 5126,
            "count" : 636,
            "max" : [
                1,
                0.06074252724647522,
                -0.009999938309192657
            ],
            "min" : [
                -1.0549616813659668,
                -0.06000000238418579,
                -0.346882700920105
            ],
            "type" : "VEC3"
        },
        {
            "bufferView" : 5,
            "componentType" : 5126,
            "count" : 636,
            "type" : "VEC3"
        },
        {
            "bufferView" : 6,
            "componentType" : 5126,
            "count" : 636,
            "type" : "VEC2"
        },
        {
            "bufferView" : 7,
            "componentType" : 5123,
            "count" : 954,
            "type" : "SCALAR"
        },
        {
            "bufferView" : 8,
            "componentType" : 5126,
            "count" : 24,
            "max" : [
                1.0194364786148071,
                0.05702182278037071,
                -0.010259408503770828
            ],
            "min" : [
                0.9805636405944824,
                -0.05702211335301399,
                -0.12974056601524353
            ],
            "type" : "VEC3"
        },
        {
            "bufferView" : 9,
            "componentType" : 5126,
            "count" : 24,
            "type" : "VEC3"
        },
        {
            "bufferView" : 10,
            "componentType" : 5126,
            "count" : 24,
            "type" : "VEC2"
        },
        {
            "bufferView" : 11,
            "componentType" : 5123,
            "count" : 66,
            "type" : "SCALAR"
        },
        {
            "bufferView" : 12,
            "componentType" : 5126,
            "count" : 192,
            "max" : [
                1,
                1,
                1
            ],
            "min" : [
                -1,
                -1,
                -1
            ],
            "type" : "VEC3"
        },
        {
            "bufferView" : 13,
            "componentType" : 5126,
            "count" : 192,
            "type" : "VEC3"
        },
        {
            "bufferView" : 14,
            "componentType" : 5126,
            "count" : 192,
            "type" : "VEC2"
        },
        {
            "bufferView" : 15,
            "componentType" : 5123,
            "count" : 372,
            "type" : "SCALAR"
        },
        {
            "bufferView" : 16,
            "componentType" : 5126,
            "count" : 192,
            "max" : [
                1,
                1,
                1
            ],
            "min" : [
                -1,
                -1,
                -1
            ],
            "type" : "VEC3"
        },
        {
            "bufferView" : 17,
            "componentType" : 5126,
            "count" : 192,
            "type" : "VEC3"
        },
        {
            "bufferView" : 18,
            "componentType" : 5126,
            "count" : 192,
            "type" : "VEC2"
        },
        {
            "bufferView" : 19,
            "componentType" : 5126,
            "count" : 192,
            "max" : [
                1,
                1,
                1
            ],
            "min" : [
                -1,
                -1,
                -1
            ],
            "type" : "VEC3"
        },
        {
            "bufferView" : 20,
            "componentType" : 5126,
            "count" : 192,
            "type" : "VEC3"
        },
        {
            "bufferView" : 21,
            "componentType" : 5126,
            "count" : 192,
            "type" : "VEC2"
        },
        {
            "bufferView" : 22,
            "componentType" : 5126,
            "count" : 192,
            "max" : [
                1,
                1,
                1
            ],
            "min" : [
                -1,
                -1,
                -1
            ],
            "type" : "VEC3"
        },
        {
            "bufferView" : 23,
            "componentType" : 5126,
            "count" : 192,
            "type" : "VEC3"
        },
        {
            "bufferView" : 24,
            "componentType" : 5126,
            "count" : 192,
            "type" : "VEC2"
        },
        {
            "bufferView" : 25,
            "componentType" : 5126,
            "count" : 5532,
            "max" : [
                4.475000381469727,
                0.04999999701976776,
                0.009000000543892384
            ],
            "min" : [
                0.07400000095367432,
                -0.04999999701976776,
                -0.6910000443458557
            ],
            "type" : "VEC3"
        },
        {
            "bufferView" : 26,
            "componentType" : 5126,
            "count" : 5532,
            "type" : "VEC3"
        },
        {
            "bufferView" : 27,
            "componentType" : 5126,
            "count" : 5532,
            "type" : "VEC2"
        },
        {
            "bufferView" : 28,
            "componentType" : 5123,
            "count" : 9828,
            "type" : "SCALAR"
        }
    ],
    "bufferViews" : [
        {
            "buffer" : 0,
            "byteLength" : 59448,
            "byteOffset" : 0
        },
        {
            "buffer" : 0,
            "byteLength" : 59448,
            "byteOffset" : 59448
        },
        {
            "buffer" : 0,
            "byteLength" : 39632,
            "byteOffset" : 118896
        },
        {
            "buffer" : 0,
            "byteLength" : 14928,
            "byteOffset" : 158528
        },
        {
            "buffer" : 0,
            "byteLength" : 7632,
            "byteOffset" : 173456
        },
        {
            "buffer" : 0,
            "byteLength" : 7632,
            "byteOffset" : 181088
        },
        {
            "buffer" : 0,
            "byteLength" : 5088,
            "byteOffset" : 188720
        },
        {
            "buffer" : 0,
            "byteLength" : 1908,
            "byteOffset" : 193808
        },
        {
            "buffer" : 0,
            "byteLength" : 288,
            "byteOffset" : 195716
        },
        {
            "buffer" : 0,
            "byteLength" : 288,
            "byteOffset" : 196004
        },
        {
            "buffer" : 0,
            "byteLength" : 192,
            "byteOffset" : 196292
        },
        {
            "buffer" : 0,
            "byteLength" : 132,
            "byteOffset" : 196484
        },
        {
            "buffer" : 0,
            "byteLength" : 2304,
            "byteOffset" : 196616
        },
        {
            "buffer" : 0,
            "byteLength" : 2304,
            "byteOffset" : 198920
        },
        {
            "buffer" : 0,
            "byteLength" : 1536,
            "byteOffset" : 201224
        },
        {
            "buffer" : 0,
            "byteLength" : 744,
            "byteOffset" : 202760
        },
        {
            "buffer" : 0,
            "byteLength" : 2304,
            "byteOffset" : 203504
        },
        {
            "buffer" : 0,
            "byteLength" : 2304,
            "byteOffset" : 205808
        },
        {
            "buffer" : 0,
            "byteLength" : 1536,
            "byteOffset" : 208112
        },
        {
            "buffer" : 0,
            "byteLength" : 2304,
            "byteOffset" : 209648
        },
        {
            "buffer" : 0,
            "byteLength" : 2304,
            "byteOffset" : 211952
        },
        {
            "buffer" : 0,
            "byteLength" : 1536,
            "byteOffset" : 214256
        },
        {
            "buffer" : 0,
            "byteLength" : 2304,
            "byteOffset" : 215792
        },
        {
            "buffer" : 0,
            "byteLength" : 2304,
            "byteOffset" : 218096
        },
        {
            "buffer" : 0,
            "byteLength" : 1536,
            "byteOffset" : 220400
        },
        {
            "buffer" : 0,
            "byteLength" : 66384,
            "byteOffset" : 221936
        },
        {
            "buffer" : 0,
            "byteLength" : 66384,
            "byteOffset" : 288320
        },
        {
            "buffer" : 0,
            "byteLength" : 44256,
            "byteOffset" : 354704
        },
        {
            "buffer" : 0,
            "byteLength" : 19656,
            "byteOffset" : 398960
        }
    ],
    "buffers" : [
        {
            "byteLength" : 418616,
            "uri" : "data:application/octet-stream;base64,"
        }
    ]
}
