{
    "asset" : {
        "generator" : "Khronos glTF Blender I/O v1.7.33",
        "version" : "2.0"
    },
    "scene" : 0,
    "scenes" : [
        {
            "name" : "Scene",
            "nodes" : [
                0,
                1,
                2,
                3,
                4,
                5
            ]
        }
    ],
    "nodes" : [
        {
            "mesh" : 0,
            "name" : "Cube",
            "scale" : [
                1.3273714780807495,
                0.7587760090827942,
                0.40558168292045593
            ],
            "translation" : [
                0.22965510189533234,
                0.759700357913971,
                0.11881899833679199
            ]
        },
        {
            "mesh" : 1,
            "name" : "Cylinder",
            "rotation" : [
                0.7071068286895752,
                0,
                0,
                0.7071068286895752
            ],
            "scale" : [
                0.3527834713459015,
                0.05903886631131172,
                0.3527834713459015
            ],
            "translation" : [
                0.4404979348182678,
                0.8030323386192322,
                0.6454377770423889
            ]
        },
        {
            "mesh" : 2,
            "name" : "Cylinder.001",
            "scale" : [
                0.22353492677211761,
                0.08502469956874847,
                0.22353492677211761
            ],
            "translation" : [
                -0.46425139904022217,
                1.5345909595489502,
                0.11881899833679199
            ]
        },
        {
            "mesh" : 3,
            "name" : "Cylinder.002",
            "scale" : [
                0.22353492677211761,
                0.08502469956874847,
                0.22353492677211761
            ],
            "translation" : [
                0.931504487991333,
                1.5345909595489502,
                0.11881899833679199
            ]
        },
        {
            "mesh" : 4,
            "name" : "Cube.001",
            "rotation" : [
                0,
                0.7071068286895752,
                0,
                0.7071068286895752
            ],
            "scale" : [
                0.034439995884895325,
                0.08407320082187653,
                0.21179677546024323
            ],
            "translation" : [
                -0.5230463147163391,
                1.183309555053711,
                0.6454910635948181
            ]
        },
        {
            "mesh" : 5,
            "name" : "Text",
            "rotation" : [
                0.7071068286895752,
                0,
                0,
                0.7071068286895752
            ],
            "scale" : [
                0.5963582992553711,
                0.5963582992553711,
                0.5963582992553711
            ],
            "translation" : [
                -1.7881356477737427,
                2.325205087661743,
                0.11881899833679199
            ]
        }
    ],
    "materials" : [
        {
            "doubleSided" : true,
            "name" : "Material",
            "pbrMetallicRoughness" : {
                "baseColorFactor" : [
                    0.8000000715255737,
                    0.15809527039527893,
                    0.0636044442653656,
                    1
                ],
                "metallicFactor" : 0,
                "roughnessFactor" : 0.4000000059604645
            }
        },
        {
            "doubleSided" : true,
            "name" : "Material.004",
            "pbrMetallicRoughness" : {
                "baseColorFactor" : [
                    0,
                    0,
                    0,
                    1
                ],
                "metallicFactor" : 0,
                "roughnessFactor" : 0.4000000059604645
            }
        },
        {
            "doubleSided" : true,
            "name" : "Material.001",
            "pbrMetallicRoughness" : {
                "baseColorFactor" : [
                    0,
                    0,
                    0,
                    1
                ],
                "metallicFactor" : 0,
                "roughnessFactor" : 0.4000000059604645
            }
        },
        {
            "doubleSided" : true,
            "name" : "Material.010",
            "pbrMetallicRoughness" : {
                "baseColorFactor" : [
                    0.4707660377025604,
                    0.7544366717338562,
                    0.8000000715255737,
                    1
                ],
                "metallicFactor" : 0,
                "roughnessFactor" : 0.4000000059604645
            }
        },
        {
            "doubleSided" : true,
            "name" : "Material.009",
            "pbrMetallicRoughness" : {
                "baseColorFactor" : [
                    0.019544068723917007,
                    0.019544068723917007,
                    0.019544068723917007,
                    1
                ],
                "metallicFactor" : 0,
                "roughnessFactor" : 0.4000000059604645
            }
        },
        {
            "doubleSided" : true,
            "name" : "Material.008",
            "pbrMetallicRoughness" : {
                "baseColorFactor" : [
                    0.024808254092931747,
                    0.024808254092931747,
                    0.024808254092931747,
                    1
                ],
                "metallicFactor" : 0,
                "roughnessFactor" : 0.4000000059604645
            }
        },
        {
            "doubleSided" : true,
            "name" : "Material.006",
            "pbrMetallicRoughness" : {
                "baseColorFactor" : [
                    0.06529486924409866,
                    0.06529486924409866,
                    0.06529486924409866,
                    1
                ],
                "metallicFactor" : 0,
                "roughnessFactor" : 0.4000000059604645
            }
        },
        {
            "doubleSided" : true,
            "name" : "Material.007",
            "pbrMetallicRoughness" : {
                "baseColorFactor" : [
                    0.8000000715255737,
                    0.5689992904663086,
                    0.04703981801867485,
                    1
                ],
                "metallicFactor" : 0,
                "roughnessFactor" : 0.4000000059604645
            }
        },
        {
            "doubleSided" : true,
            "name" : "Material.011",
            "pbrMetallicRoughness" : {
                "baseColorFactor" : [
                    0,
                    0,
                    0,
                    1
                ],
                "metallicFactor" : 0,
                "roughnessFactor" : 0.4000000059604645
            }
        }
    ],
    "meshes" : [
        {
            "name" : "Cube",
            "primitives" : [
                {
                    "attributes" : {
                        "POSITION" : 0,
                        "NORMAL" : 1,
                        "TEXCOORD_0" : 2
                    },
                    "indices" : 3,
                    "material" : 0
                },
                {
                    "attributes" : {
                        "POSITION" : 4,
                        "NORMAL" : 5,
                        "TEXCOORD_0" : 6
                    },
                    "indices" : 7,
                    "material" : 1
                }
            ]
        },
        {
            "name" : "Cylinder",
            "primitives" : [
                {
                    "attributes" : {
                        "POSITION" : 8,
                        "NORMAL" : 9,
                        "TEXCOORD_0" : 10
                    },
                    "indices" : 11,
                    "material" : 2
                },
                {
                    "attributes" : {
                        "POSITION" : 12,
                        "NORMAL" : 13,
                        "TEXCOORD_0" : 14
                    },
                    "indices" : 15,
                    "material" : 3
                }
            ]
        },
        {
            "name" : "Cylinder.001",
            "primitives" : [
                {
                    "attributes" : {
                        "POSITION" : 16,
                        "NORMAL" : 17,
                        "TEXCOORD_0" : 18
                    },
                    "indices" : 19,
                    "material" : 4
                }
            ]
        },
        {
            "name" : "Cylinder.002",
            "primitives" : [
                {
                    "attributes" : {
                        "POSITION" : 20,
                        "NORMAL" : 21,
                        "TEXCOORD_0" : 22
                    },
                    "indices" : 19,
                    "material" : 5
                }
            ]
        },
        {
            "name" : "Cube.001",
            "primitives" : [
                {
                    "attributes" : {
                        "POSITION" : 23,
                        "NORMAL" : 24,
                        "TEXCOORD_0" : 25
                    },
                    "indices" : 26,
                    "material" : 6
                },
                {
                    "attributes" : {
                        "POSITION" : 27,
                        "NORMAL" : 28,
                        "TEXCOORD_0" : 29
                    },
                    "indices" : 30,
                    "material" : 7
                }
            ]
        },
        {
            "name" : "Text",
            "primitives" : [
                {
                    "attributes" : {
                        "POSITION" : 31,
                        "NORMAL" : 32,
                        "TEXCOORD_0" : 33
                    },
                    "indices" : 34,
                    "material" : 8
                }
            ]
        }
    ],
    "accessors" : [
        {
            "bufferView" : 0,
            "componentType" : 5126,
            "count" : 463,
            "max" : [
                1,
                0.9999999403953552,
                1.1967682838439941
            ],
            "min" : [
                -1,
                -0.9999999403953552,
                -0.9999998807907104
            ],
            "type" : "VEC3"
        },
        {
            "bufferView" : 1,
            "componentType" : 5126,
            "count" : 463,
            "type" : "VEC3"
        },
        {
            "bufferView" : 2,
            "componentType" : 5126,
            "count" : 463,
            "type" : "VEC2"
        },
        {
            "bufferView" : 3,
            "componentType" : 5123,
            "count" : 849,
            "type" : "SCALAR"
        },
        {
            "bufferView" : 4,
            "componentType" : 5126,
            "count" : 201,
            "max" : [
                1,
                0.9999999403953552,
                1.1967682838439941
            ],
            "min" : [
                -1,
                -0.9999999403953552,
                -0.9999998807907104
            ],
            "type" : "VEC3"
        },
        {
            "bufferView" : 5,
            "componentType" : 5126,
            "count" : 201,
            "type" : "VEC3"
        },
        {
            "bufferView" : 6,
            "componentType" : 5126,
            "count" : 201,
            "type" : "VEC2"
        },
        {
            "bufferView" : 7,
            "componentType" : 5123,
            "count" : 351,
            "type" : "SCALAR"
        },
        {
            "bufferView" : 8,
            "componentType" : 5126,
            "count" : 928,
            "max" : [
                1.1320703029632568,
                3.3871099948883057,
                1.1320703029632568
            ],
            "min" : [
                -1.1320703029632568,
                -1,
                -1.1320703029632568
            ],
            "type" : "VEC3"
        },
        {
            "bufferView" : 9,
            "componentType" : 5126,
            "count" : 928,
            "type" : "VEC3"
        },
        {
            "bufferView" : 10,
            "componentType" : 5126,
            "count" : 928,
            "type" : "VEC2"
        },
        {
            "bufferView" : 11,
            "componentType" : 5123,
            "count" : 1434,
            "type" : "SCALAR"
        },
        {
            "bufferView" : 12,
            "componentType" : 5126,
            "count" : 534,
            "max" : [
                0.9349775314331055,
                3.387110948562622,
                0.9349775314331055
            ],
            "min" : [
                -0.9349775314331055,
                0.3842645287513733,
                -0.9349775314331055
            ],
            "type" : "VEC3"
        },
        {
            "bufferView" : 13,
            "componentType" : 5126,
            "count" : 534,
            "type" : "VEC3"
        },
        {
            "bufferView" : 14,
            "componentType" : 5126,
            "count" : 534,
            "type" : "VEC2"
        },
        {
            "bufferView" : 15,
            "componentType" : 5123,
            "count" : 858,
            "type" : "SCALAR"
        },
        {
            "bufferView" : 16,
            "componentType" : 5126,
            "count" : 192,
            "max" : [
                1,
                1,
                1
            ],
            "min" : [
                -1,
                -1,
                -1
            ],
            "type" : "VEC3"
        },
        {
            "bufferView" : 17,
            "componentType" : 5126,
            "count" : 192,
            "type" : "VEC3"
        },
        {
            "bufferView" : 18,
            "componentType" : 5126,
            "count" : 192,
            "type" : "VEC2"
        },
        {
            "bufferView" : 19,
            "componentType" : 5123,
            "count" : 372,
            "type" : "SCALAR"
        },
        {
            "bufferView" : 20,
            "componentType" : 5126,
            "count" : 192,
            "max" : [
                1,
                1,
                1
            ],
            "min" : [
                -1,
                -1,
                -1
            ],
            "type" : "VEC3"
        },
        {
            "bufferView" : 21,
            "componentType" : 5126,
            "count" : 192,
            "type" : "VEC3"
        },
        {
            "bufferView" : 22,
            "componentType" : 5126,
            "count" : 192,
            "type" : "VEC2"
        },
        {
            "bufferView" : 23,
            "componentType" : 5126,
            "count" : 52,
            "max" : [
                5.820313930511475,
                1,
                1
            ],
            "min" : [
                -1,
                -1,
                -1
            ],
            "type" : "VEC3"
        },
        {
            "bufferView" : 24,
            "componentType" : 5126,
            "count" : 52,
            "type" : "VEC3"
        },
        {
            "bufferView" : 25,
            "componentType" : 5126,
            "count" : 52,
            "type" : "VEC2"
        },
        {
            "bufferView" : 26,
            "componentType" : 5123,
            "count" : 78,
            "type" : "SCALAR"
        },
        {
            "bufferView" : 27,
            "componentType" : 5126,
            "count" : 4,
            "max" : [
                -0.29709041118621826,
                1,
                1
            ],
            "min" : [
                -0.29709041118621826,
                -1,
                -1
            ],
            "type" : "VEC3"
        },
        {
            "bufferView" : 28,
            "componentType" : 5126,
            "count" : 4,
            "type" : "VEC3"
        },
        {
            "bufferView" : 29,
            "componentType" : 5126,
            "count" : 4,
            "type" : "VEC2"
        },
        {
            "bufferView" : 30,
            "componentType" : 5123,
            "count" : 6,
            "type" : "SCALAR"
        },
        {
            "bufferView" : 31,
            "componentType" : 5126,
            "count" : 7484,
            "max" : [
                6.449000358581543,
                0.04999999701976776,
                0.009000000543892384
            ],
            "min" : [
                0.07000000029802322,
                -0.04999999701976776,
                -0.6910000443458557
            ],
            "type" : "VEC3"
        },
        {
            "bufferView" : 32,
            "componentType" : 5126,
            "count" : 7484,
            "type" : "VEC3"
        },
        {
            "bufferView" : 33,
            "componentType" : 5126,
            "count" : 7484,
            "type" : "VEC2"
        },
        {
            "bufferView" : 34,
            "componentType" : 5123,
            "count" : 13440,
            "type" : "SCALAR"
        }
    ],
    "bufferViews" : [
        {
            "buffer" : 0,
            "byteLength" : 5556,
            "byteOffset" : 0
        },
        {
            "buffer" : 0,
            "byteLength" : 5556,
            "byteOffset" : 5556
        },
        {
            "buffer" : 0,
            "byteLength" : 3704,
            "byteOffset" : 11112
        },
        {
            "buffer" : 0,
            "byteLength" : 1698,
            "byteOffset" : 14816
        },
        {
            "buffer" : 0,
            "byteLength" : 2412,
            "byteOffset" : 16516
        },
        {
            "buffer" : 0,
            "byteLength" : 2412,
            "byteOffset" : 18928
        },
        {
            "buffer" : 0,
            "byteLength" : 1608,
            "byteOffset" : 21340
        },
        {
            "buffer" : 0,
            "byteLength" : 702,
            "byteOffset" : 22948
        },
        {
            "buffer" : 0,
            "byteLength" : 11136,
            "byteOffset" : 23652
        },
        {
            "buffer" : 0,
            "byteLength" : 11136,
            "byteOffset" : 34788
        },
        {
            "buffer" : 0,
            "byteLength" : 7424,
            "byteOffset" : 45924
        },
        {
            "buffer" : 0,
            "byteLength" : 2868,
            "byteOffset" : 53348
        },
        {
            "buffer" : 0,
            "byteLength" : 6408,
            "byteOffset" : 56216
        },
        {
            "buffer" : 0,
            "byteLength" : 6408,
            "byteOffset" : 62624
        },
        {
            "buffer" : 0,
            "byteLength" : 4272,
            "byteOffset" : 69032
        },
        {
            "buffer" : 0,
            "byteLength" : 1716,
            "byteOffset" : 73304
        },
        {
            "buffer" : 0,
            "byteLength" : 2304,
            "byteOffset" : 75020
        },
        {
            "buffer" : 0,
            "byteLength" : 2304,
            "byteOffset" : 77324
        },
        {
            "buffer" : 0,
            "byteLength" : 1536,
            "byteOffset" : 79628
        },
        {
            "buffer" : 0,
            "byteLength" : 744,
            "byteOffset" : 81164
        },
        {
            "buffer" : 0,
            "byteLength" : 2304,
            "byteOffset" : 81908
        },
        {
            "buffer" : 0,
            "byteLength" : 2304,
            "byteOffset" : 84212
        },
        {
            "buffer" : 0,
            "byteLength" : 1536,
            "byteOffset" : 86516
        },
        {
            "buffer" : 0,
            "byteLength" : 624,
            "byteOffset" : 88052
        },
        {
            "buffer" : 0,
            "byteLength" : 624,
            "byteOffset" : 88676
        },
        {
            "buffer" : 0,
            "byteLength" : 416,
            "byteOffset" : 89300
        },
        {
            "buffer" : 0,
            "byteLength" : 156,
            "byteOffset" : 89716
        },
        {
            "buffer" : 0,
            "byteLength" : 48,
            "byteOffset" : 89872
        },
        {
            "buffer" : 0,
            "byteLength" : 48,
            "byteOffset" : 89920
        },
        {
            "buffer" : 0,
            "byteLength" : 32,
            "byteOffset" : 89968
        },
        {
            "buffer" : 0,
            "byteLength" : 12,
            "byteOffset" : 90000
        },
        {
            "buffer" : 0,
            "byteLength" : 89808,
            "byteOffset" : 90012
        },
        {
            "buffer" : 0,
            "byteLength" : 89808,
            "byteOffset" : 179820
        },
        {
            "buffer" : 0,
            "byteLength" : 59872,
            "byteOffset" : 269628
        },
        {
            "buffer" : 0,
            "byteLength" : 26880,
            "byteOffset" : 329500
        }
    ],
    "buffers" : [
        {
            "byteLength" : 356380,
            "uri" : "data:application/octet-stream;base64,"
        }
    ]
}
