{
    "asset" : {
        "generator" : "Khronos glTF Blender I/O v1.7.33",
        "version" : "2.0"
    },
    "scene" : 0,
    "scenes" : [
        {
            "name" : "Scene",
            "nodes" : [
                0,
                1,
                2,
                3,
                4
            ]
        }
    ],
    "nodes" : [
        {
            "mesh" : 0,
            "name" : "Circle",
            "rotation" : [
                0,
                0.7071068286895752,
                0,
                0.7071068286895752
            ],
            "scale" : [
                0.41503047943115234,
                0.41503047943115234,
                0.41503047943115234
            ],
            "translation" : [
                -0.22388553619384766,
                4.833234786987305,
                3.267808198928833
            ]
        },
        {
            "mesh" : 1,
            "name" : "Circle.001",
            "rotation" : [
                0,
                0.7071068286895752,
                0,
                0.7071068286895752
            ],
            "scale" : [
                0.41503047943115234,
                0.41503047943115234,
                0.41503047943115234
            ],
            "translation" : [
                -0.07187604904174805,
                5.57805061340332,
                -6.293419361114502
            ]
        },
        {
            "mesh" : 2,
            "name" : "Circle.002",
            "rotation" : [
                0,
                0.32769104838371277,
                0,
                -0.944784939289093
            ],
            "scale" : [
                0.2609538435935974,
                0.26095378398895264,
                0.2609538435935974
            ],
            "translation" : [
                0.04324007034301758,
                4.816712379455566,
                -2.012354850769043
            ]
        },
        {
            "mesh" : 3,
            "name" : "Circle.003",
            "rotation" : [
                0,
                0.7071068286895752,
                0,
                0.7071068286895752
            ],
            "scale" : [
                0.41503047943115234,
                0.41503047943115234,
                0.41503047943115234
            ],
            "translation" : [
                -0.21033239364624023,
                5.619619369506836,
                7.426148891448975
            ]
        },
        {
            "mesh" : 4,
            "name" : "Text",
            "rotation" : [
                0.5,
                0.5,
                -0.5,
                0.4999999701976776
            ],
            "scale" : [
                0.9008264541625977,
                0.9008264541625977,
                0.9008264541625977
            ],
            "translation" : [
                -0.22621583938598633,
                8.792560577392578,
                0.45539960265159607
            ]
        }
    ],
    "materials" : [
        {
            "doubleSided" : true,
            "name" : "Material.001",
            "pbrMetallicRoughness" : {}
        },
        {
            "doubleSided" : true,
            "name" : "Material.002",
            "pbrMetallicRoughness" : {}
        },
        {
            "doubleSided" : true,
            "name" : "Material.004",
            "pbrMetallicRoughness" : {}
        },
        {
            "doubleSided" : true,
            "name" : "Material.003",
            "pbrMetallicRoughness" : {}
        },
        {
            "doubleSided" : true,
            "name" : "Material.005",
            "pbrMetallicRoughness" : {
                "baseColorFactor" : [
                    0.0020634501706808805,
                    0.0020634501706808805,
                    0.0020634501706808805,
                    1
                ],
                "metallicFactor" : 0,
                "roughnessFactor" : 0.4000000059604645
            }
        }
    ],
    "meshes" : [
        {
            "name" : "Circle.004",
            "primitives" : [
                {
                    "attributes" : {
                        "POSITION" : 0,
                        "NORMAL" : 1
                    },
                    "indices" : 2,
                    "material" : 0
                }
            ]
        },
        {
            "name" : "Circle.009",
            "primitives" : [
                {
                    "attributes" : {
                        "POSITION" : 3,
                        "NORMAL" : 4
                    },
                    "indices" : 5,
                    "material" : 1
                }
            ]
        },
        {
            "name" : "Circle.002",
            "primitives" : [
                {
                    "attributes" : {
                        "POSITION" : 6,
                        "NORMAL" : 7
                    },
                    "indices" : 8,
                    "material" : 2
                }
            ]
        },
        {
            "name" : "Circle.016",
            "primitives" : [
                {
                    "attributes" : {
                        "POSITION" : 9,
                        "NORMAL" : 10
                    },
                    "indices" : 11,
                    "material" : 3
                }
            ]
        },
        {
            "name" : "Text",
            "primitives" : [
                {
                    "attributes" : {
                        "POSITION" : 12,
                        "NORMAL" : 13,
                        "TEXCOORD_0" : 14
                    },
                    "indices" : 15,
                    "material" : 4
                }
            ]
        }
    ],
    "accessors" : [
        {
            "bufferView" : 0,
            "componentType" : 5126,
            "count" : 6208,
            "max" : [
                3.228670597076416,
                4.478662490844727,
                3.7869133949279785
            ],
            "min" : [
                -3.5694382190704346,
                -11.633777618408203,
                -3.7493138313293457
            ],
            "type" : "VEC3"
        },
        {
            "bufferView" : 1,
            "componentType" : 5126,
            "count" : 6208,
            "type" : "VEC3"
        },
        {
            "bufferView" : 2,
            "componentType" : 5123,
            "count" : 9732,
            "type" : "SCALAR"
        },
        {
            "bufferView" : 3,
            "componentType" : 5126,
            "count" : 8896,
            "max" : [
                1.9278130531311035,
                3.397080421447754,
                2.6321403980255127
            ],
            "min" : [
                -3.0199031829833984,
                -13.42838191986084,
                -4.115575313568115
            ],
            "type" : "VEC3"
        },
        {
            "bufferView" : 4,
            "componentType" : 5126,
            "count" : 8896,
            "type" : "VEC3"
        },
        {
            "bufferView" : 5,
            "componentType" : 5123,
            "count" : 13932,
            "type" : "SCALAR"
        },
        {
            "bufferView" : 6,
            "componentType" : 5126,
            "count" : 4864,
            "max" : [
                5.546953201293945,
                6.0293097496032715,
                4.038962364196777
            ],
            "min" : [
                -3.4916529655456543,
                -18.43947410583496,
                -3.4554455280303955
            ],
            "type" : "VEC3"
        },
        {
            "bufferView" : 7,
            "componentType" : 5126,
            "count" : 4864,
            "type" : "VEC3"
        },
        {
            "bufferView" : 8,
            "componentType" : 5123,
            "count" : 7632,
            "type" : "SCALAR"
        },
        {
            "bufferView" : 9,
            "componentType" : 5126,
            "count" : 3520,
            "max" : [
                0.9488050937652588,
                6.927538871765137,
                4.012021541595459
            ],
            "min" : [
                -1.012765645980835,
                -13.528542518615723,
                -3.9916889667510986
            ],
            "type" : "VEC3"
        },
        {
            "bufferView" : 10,
            "componentType" : 5126,
            "count" : 3520,
            "type" : "VEC3"
        },
        {
            "bufferView" : 11,
            "componentType" : 5123,
            "count" : 5532,
            "type" : "SCALAR"
        },
        {
            "bufferView" : 12,
            "componentType" : 5126,
            "count" : 4108,
            "max" : [
                2.761017084121704,
                0.08999998867511749,
                0.019014526158571243
            ],
            "min" : [
                0.03797976300120354,
                -0.08999998867511749,
                -0.7010059952735901
            ],
            "type" : "VEC3"
        },
        {
            "bufferView" : 13,
            "componentType" : 5126,
            "count" : 4108,
            "type" : "VEC3"
        },
        {
            "bufferView" : 14,
            "componentType" : 5126,
            "count" : 4108,
            "type" : "VEC2"
        },
        {
            "bufferView" : 15,
            "componentType" : 5123,
            "count" : 7368,
            "type" : "SCALAR"
        }
    ],
    "bufferViews" : [
        {
            "buffer" : 0,
            "byteLength" : 74496,
            "byteOffset" : 0
        },
        {
            "buffer" : 0,
            "byteLength" : 74496,
            "byteOffset" : 74496
        },
        {
            "buffer" : 0,
            "byteLength" : 19464,
            "byteOffset" : 148992
        },
        {
            "buffer" : 0,
            "byteLength" : 106752,
            "byteOffset" : 168456
        },
        {
            "buffer" : 0,
            "byteLength" : 106752,
            "byteOffset" : 275208
        },
        {
            "buffer" : 0,
            "byteLength" : 27864,
            "byteOffset" : 381960
        },
        {
            "buffer" : 0,
            "byteLength" : 58368,
            "byteOffset" : 409824
        },
        {
            "buffer" : 0,
            "byteLength" : 58368,
            "byteOffset" : 468192
        },
        {
            "buffer" : 0,
            "byteLength" : 15264,
            "byteOffset" : 526560
        },
        {
            "buffer" : 0,
            "byteLength" : 42240,
            "byteOffset" : 541824
        },
        {
            "buffer" : 0,
            "byteLength" : 42240,
            "byteOffset" : 584064
        },
        {
            "buffer" : 0,
            "byteLength" : 11064,
            "byteOffset" : 626304
        },
        {
            "buffer" : 0,
            "byteLength" : 49296,
            "byteOffset" : 637368
        },
        {
            "buffer" : 0,
            "byteLength" : 49296,
            "byteOffset" : 686664
        },
        {
            "buffer" : 0,
            "byteLength" : 32864,
            "byteOffset" : 735960
        },
        {
            "buffer" : 0,
            "byteLength" : 14736,
            "byteOffset" : 768824
        }
    ],
    "buffers" : [
        {
            "byteLength" : 783560,
            "uri" : "data:application/octet-stream;base64,"
        }
    ]
}
