{
    "asset" : {
        "generator" : "Khronos glTF Blender I/O v1.7.33",
        "version" : "2.0"
    },
    "scene" : 0,
    "scenes" : [
        {
            "name" : "Scene",
            "nodes" : [
                0,
                1,
                2
            ]
        }
    ],
    "nodes" : [
        {
            "mesh" : 0,
            "name" : " ",
            "rotation" : [
                0.557345449924469,
                0.43516218662261963,
                0.43516212701797485,
                0.5573453307151794
            ],
            "scale" : [
                0.1851804256439209,
                0.1851804256439209,
                0.1851804256439209
            ],
            "translation" : [
                -0.021611297503113747,
                -0.07548488676548004,
                -0.7402727603912354
            ]
        },
        {
            "mesh" : 1,
            "name" : "Object",
            "rotation" : [
                0.557345449924469,
                0.43516218662261963,
                0.43516212701797485,
                0.5573453307151794
            ],
            "scale" : [
                0.1851804256439209,
                0.1851804256439209,
                0.1851804256439209
            ],
            "translation" : [
                -0.029390092939138412,
                -0.41320064663887024,
                0.787600040435791
            ]
        },
        {
            "mesh" : 2,
            "name" : "Text",
            "rotation" : [
                0.5,
                0.5,
                -0.5,
                0.4999999701976776
            ],
            "scale" : [
                0.6188145279884338,
                0.6188145279884338,
                0.6188145279884338
            ],
            "translation" : [
                0,
                1.1058732271194458,
                1.0559728145599365
            ]
        }
    ],
    "materials" : [
        {
            "doubleSided" : true,
            "name" : "Material.001",
            "pbrMetallicRoughness" : {
                "baseColorFactor" : [
                    0.8000000715255737,
                    0.4306679368019104,
                    0.20986422896385193,
                    1
                ],
                "metallicFactor" : 0,
                "roughnessFactor" : 0.4000000059604645
            }
        },
        {
            "doubleSided" : true,
            "name" : "Material.002",
            "pbrMetallicRoughness" : {
                "baseColorFactor" : [
                    1,
                    0.49512356519699097,
                    0.16065531969070435,
                    1
                ],
                "metallicFactor" : 0,
                "roughnessFactor" : 0.4000000059604645
            }
        },
        {
            "doubleSided" : true,
            "name" : "Material.003",
            "pbrMetallicRoughness" : {
                "baseColorFactor" : [
                    0.02909935638308525,
                    0.02909935638308525,
                    0.02909935638308525,
                    1
                ],
                "metallicFactor" : 0,
                "roughnessFactor" : 0.4000000059604645
            }
        }
    ],
    "meshes" : [
        {
            "name" : "potatoes OBJ.001",
            "primitives" : [
                {
                    "attributes" : {
                        "POSITION" : 0,
                        "NORMAL" : 1,
                        "TEXCOORD_0" : 2
                    },
                    "indices" : 3,
                    "material" : 0
                }
            ]
        },
        {
            "name" : "potatoes OBJ.002",
            "primitives" : [
                {
                    "attributes" : {
                        "POSITION" : 4,
                        "NORMAL" : 5,
                        "TEXCOORD_0" : 6
                    },
                    "indices" : 3,
                    "material" : 1
                }
            ]
        },
        {
            "name" : "Text",
            "primitives" : [
                {
                    "attributes" : {
                        "POSITION" : 7,
                        "NORMAL" : 8,
                        "TEXCOORD_0" : 9
                    },
                    "indices" : 10,
                    "material" : 2
                }
            ]
        }
    ],
    "accessors" : [
        {
            "bufferView" : 0,
            "componentType" : 5126,
            "count" : 266,
            "max" : [
                5.350547790527344,
                3.1637191772460938,
                3.317859411239624
            ],
            "min" : [
                -5.571518421173096,
                -3.1420860290527344,
                -3.2279067039489746
            ],
            "type" : "VEC3"
        },
        {
            "bufferView" : 1,
            "componentType" : 5126,
            "count" : 266,
            "type" : "VEC3"
        },
        {
            "bufferView" : 2,
            "componentType" : 5126,
            "count" : 266,
            "type" : "VEC2"
        },
        {
            "bufferView" : 3,
            "componentType" : 5123,
            "count" : 1500,
            "type" : "SCALAR"
        },
        {
            "bufferView" : 4,
            "componentType" : 5126,
            "count" : 266,
            "max" : [
                5.125367641448975,
                3.1477246284484863,
                3.254629135131836
            ],
            "min" : [
                -5.2782135009765625,
                -3.143402099609375,
                -3.254467010498047
            ],
            "type" : "VEC3"
        },
        {
            "bufferView" : 5,
            "componentType" : 5126,
            "count" : 266,
            "type" : "VEC3"
        },
        {
            "bufferView" : 6,
            "componentType" : 5126,
            "count" : 266,
            "type" : "VEC2"
        },
        {
            "bufferView" : 7,
            "componentType" : 5126,
            "count" : 5152,
            "max" : [
                3.5310001373291016,
                0.05000000074505806,
                0.009000000543892384
            ],
            "min" : [
                0.07000000029802322,
                -0.05000000074505806,
                -0.6820000410079956
            ],
            "type" : "VEC3"
        },
        {
            "bufferView" : 8,
            "componentType" : 5126,
            "count" : 5152,
            "type" : "VEC3"
        },
        {
            "bufferView" : 9,
            "componentType" : 5126,
            "count" : 5152,
            "type" : "VEC2"
        },
        {
            "bufferView" : 10,
            "componentType" : 5123,
            "count" : 9216,
            "type" : "SCALAR"
        }
    ],
    "bufferViews" : [
        {
            "buffer" : 0,
            "byteLength" : 3192,
            "byteOffset" : 0
        },
        {
            "buffer" : 0,
            "byteLength" : 3192,
            "byteOffset" : 3192
        },
        {
            "buffer" : 0,
            "byteLength" : 2128,
            "byteOffset" : 6384
        },
        {
            "buffer" : 0,
            "byteLength" : 3000,
            "byteOffset" : 8512
        },
        {
            "buffer" : 0,
            "byteLength" : 3192,
            "byteOffset" : 11512
        },
        {
            "buffer" : 0,
            "byteLength" : 3192,
            "byteOffset" : 14704
        },
        {
            "buffer" : 0,
            "byteLength" : 2128,
            "byteOffset" : 17896
        },
        {
            "buffer" : 0,
            "byteLength" : 61824,
            "byteOffset" : 20024
        },
        {
            "buffer" : 0,
            "byteLength" : 61824,
            "byteOffset" : 81848
        },
        {
            "buffer" : 0,
            "byteLength" : 41216,
            "byteOffset" : 143672
        },
        {
            "buffer" : 0,
            "byteLength" : 18432,
            "byteOffset" : 184888
        }
    ],
    "buffers" : [
        {
            "byteLength" : 203320,
            "uri" : "data:application/octet-stream;base64,"
        }
    ]
}
