{
    "asset" : {
        "generator" : "Khronos glTF Blender I/O v1.7.33",
        "version" : "2.0"
    },
    "scene" : 0,
    "scenes" : [
        {
            "name" : "Scene",
            "nodes" : [
                0,
                1,
                2,
                3,
                4,
                5,
                6,
                7
            ]
        }
    ],
    "nodes" : [
        {
            "mesh" : 0,
            "name" : "Text.002",
            "rotation" : [
                0.5,
                0.5,
                -0.5,
                0.4999999701976776
            ],
            "scale" : [
                0.49420469999313354,
                0.49420469999313354,
                0.49420469999313354
            ],
            "translation" : [
                0.08251067996025085,
                0.989748477935791,
                -2.9890682697296143
            ]
        },
        {
            "mesh" : 1,
            "name" : "Text.001",
            "rotation" : [
                0.5,
                0.5,
                -0.5,
                0.4999999701976776
            ],
            "scale" : [
                0.49420469999313354,
                0.49420469999313354,
                0.49420469999313354
            ],
            "translation" : [
                0.18703846633434296,
                4.642093658447266,
                0.9331197738647461
            ]
        },
        {
            "mesh" : 2,
            "name" : "Text",
            "rotation" : [
                0.5,
                0.5,
                -0.5,
                0.4999999701976776
            ],
            "scale" : [
                0.49420469999313354,
                0.49420469999313354,
                0.49420469999313354
            ],
            "translation" : [
                0.18703846633434296,
                0.29550600051879883,
                3.337097644805908
            ]
        },
        {
            "mesh" : 3,
            "name" : "Cylinder.008",
            "rotation" : [
                0.704130232334137,
                0.0012415294768288732,
                0.7099359035491943,
                0.013787409290671349
            ],
            "scale" : [
                -0.14874103665351868,
                0.05908028781414032,
                0.008700811304152012
            ],
            "translation" : [
                0.012459956109523773,
                1.9792745113372803,
                2.888599157333374
            ]
        },
        {
            "mesh" : 4,
            "name" : "Cylinder.001",
            "rotation" : [
                -0.01378727424889803,
                0.7099361419677734,
                -0.0012418931582942605,
                0.7041299939155579
            ],
            "scale" : [
                -0.14874103665351868,
                0.05908028781414032,
                0.008700811304152012
            ],
            "translation" : [
                0.012459956109523773,
                3.2693042755126953,
                0.4404522180557251
            ]
        },
        {
            "mesh" : 5,
            "name" : "Cube.001",
            "scale" : [
                0.27503660321235657,
                0.21218937635421753,
                3.0999574661254883
            ],
            "translation" : [
                0.0375688299536705,
                2.6387884616851807,
                0.43806192278862
            ]
        },
        {
            "mesh" : 6,
            "name" : "Cube",
            "scale" : [
                0.7413070201873779,
                0.7413070201873779,
                0.7413070201873779
            ],
            "translation" : [
                0.0375688299536705,
                1.7266079187393188,
                -2.0523738861083984
            ]
        },
        {
            "mesh" : 7,
            "name" : "Text.003",
            "rotation" : [
                0.5,
                0.5,
                -0.5,
                0.4999999701976776
            ],
            "scale" : [
                0.518219530582428,
                0.518219530582428,
                0.518219530582428
            ],
            "translation" : [
                0.0375688299536705,
                5.721318244934082,
                3.007951259613037
            ]
        }
    ],
    "materials" : [
        {
            "doubleSided" : true,
            "name" : "Material.005",
            "pbrMetallicRoughness" : {
                "baseColorFactor" : [
                    0.0076283784583210945,
                    0.8000000715255737,
                    0.0076972744427621365,
                    1
                ],
                "metallicFactor" : 0,
                "roughnessFactor" : 0.4000000059604645
            }
        },
        {
            "doubleSided" : true,
            "name" : "Material.004",
            "pbrMetallicRoughness" : {
                "baseColorFactor" : [
                    0.036704640835523605,
                    0.7019696235656738,
                    0.8000000715255737,
                    1
                ],
                "metallicFactor" : 0,
                "roughnessFactor" : 0.4000000059604645
            }
        },
        {
            "doubleSided" : true,
            "name" : "Material.003",
            "pbrMetallicRoughness" : {
                "baseColorFactor" : [
                    0.8000000715255737,
                    0.01948198303580284,
                    0.016456076875329018,
                    1
                ],
                "metallicFactor" : 0,
                "roughnessFactor" : 0.4000000059604645
            }
        },
        {
            "doubleSided" : true,
            "name" : "Material.029",
            "pbrMetallicRoughness" : {
                "baseColorFactor" : [
                    0.5488519072532654,
                    0.008980941958725452,
                    0.006390058435499668,
                    1
                ],
                "metallicFactor" : 0,
                "roughnessFactor" : 0.5
            }
        },
        {
            "doubleSided" : true,
            "name" : "Material.001",
            "pbrMetallicRoughness" : {
                "baseColorFactor" : [
                    0.003337554167956114,
                    0.41505539417266846,
                    0.5488519072532654,
                    1
                ],
                "metallicFactor" : 0,
                "roughnessFactor" : 0.5
            }
        },
        {
            "doubleSided" : true,
            "name" : "Material.002",
            "pbrMetallicRoughness" : {
                "baseColorFactor" : [
                    0.6497827768325806,
                    0.8000000715255737,
                    0.014798684976994991,
                    1
                ],
                "metallicFactor" : 0,
                "roughnessFactor" : 0.4000000059604645
            }
        },
        {
            "doubleSided" : true,
            "name" : "Material.006",
            "pbrMetallicRoughness" : {
                "baseColorFactor" : [
                    0.008376442827284336,
                    0.8000000715255737,
                    0.04727282002568245,
                    1
                ],
                "metallicFactor" : 0,
                "roughnessFactor" : 0.4000000059604645
            }
        },
        {
            "doubleSided" : true,
            "name" : "Material.007",
            "pbrMetallicRoughness" : {
                "baseColorFactor" : [
                    0.0016551729058846831,
                    0.0016551729058846831,
                    0.0016551729058846831,
                    1
                ],
                "metallicFactor" : 0,
                "roughnessFactor" : 0.4000000059604645
            }
        }
    ],
    "meshes" : [
        {
            "name" : "Text.003",
            "primitives" : [
                {
                    "attributes" : {
                        "POSITION" : 0,
                        "NORMAL" : 1,
                        "TEXCOORD_0" : 2
                    },
                    "indices" : 3,
                    "material" : 0
                }
            ]
        },
        {
            "name" : "Text.002",
            "primitives" : [
                {
                    "attributes" : {
                        "POSITION" : 4,
                        "NORMAL" : 5,
                        "TEXCOORD_0" : 6
                    },
                    "indices" : 7,
                    "material" : 1
                }
            ]
        },
        {
            "name" : "Text",
            "primitives" : [
                {
                    "attributes" : {
                        "POSITION" : 8,
                        "NORMAL" : 9,
                        "TEXCOORD_0" : 10
                    },
                    "indices" : 11,
                    "material" : 2
                }
            ]
        },
        {
            "name" : "Cylinder.008",
            "primitives" : [
                {
                    "attributes" : {
                        "POSITION" : 12,
                        "NORMAL" : 13
                    },
                    "indices" : 14,
                    "material" : 3
                }
            ]
        },
        {
            "name" : "Cylinder.002",
            "primitives" : [
                {
                    "attributes" : {
                        "POSITION" : 15,
                        "NORMAL" : 16
                    },
                    "indices" : 14,
                    "material" : 4
                }
            ]
        },
        {
            "name" : "Cube.001",
            "primitives" : [
                {
                    "attributes" : {
                        "POSITION" : 17,
                        "NORMAL" : 18,
                        "TEXCOORD_0" : 19
                    },
                    "indices" : 20,
                    "material" : 5
                }
            ]
        },
        {
            "name" : "Cube.002",
            "primitives" : [
                {
                    "attributes" : {
                        "POSITION" : 21,
                        "NORMAL" : 22,
                        "TEXCOORD_0" : 23
                    },
                    "indices" : 24,
                    "material" : 6
                }
            ]
        },
        {
            "name" : "Text.004",
            "primitives" : [
                {
                    "attributes" : {
                        "POSITION" : 25,
                        "NORMAL" : 26,
                        "TEXCOORD_0" : 27
                    },
                    "indices" : 28,
                    "material" : 7
                }
            ]
        }
    ],
    "accessors" : [
        {
            "bufferView" : 0,
            "componentType" : 5126,
            "count" : 2510,
            "max" : [
                3.233999729156494,
                0.07999999076128006,
                0.009000000543892384
            ],
            "min" : [
                0.07600000500679016,
                -0.07999999076128006,
                -0.6820000410079956
            ],
            "type" : "VEC3"
        },
        {
            "bufferView" : 1,
            "componentType" : 5126,
            "count" : 2510,
            "type" : "VEC3"
        },
        {
            "bufferView" : 2,
            "componentType" : 5126,
            "count" : 2510,
            "type" : "VEC2"
        },
        {
            "bufferView" : 3,
            "componentType" : 5123,
            "count" : 4548,
            "type" : "SCALAR"
        },
        {
            "bufferView" : 4,
            "componentType" : 5126,
            "count" : 2432,
            "max" : [
                1.9200000762939453,
                0.07999999076128006,
                0.009000000543892384
            ],
            "min" : [
                0.07400000095367432,
                -0.07999999076128006,
                -0.6820000410079956
            ],
            "type" : "VEC3"
        },
        {
            "bufferView" : 5,
            "componentType" : 5126,
            "count" : 2432,
            "type" : "VEC3"
        },
        {
            "bufferView" : 6,
            "componentType" : 5126,
            "count" : 2432,
            "type" : "VEC2"
        },
        {
            "bufferView" : 7,
            "componentType" : 5123,
            "count" : 4236,
            "type" : "SCALAR"
        },
        {
            "bufferView" : 8,
            "componentType" : 5126,
            "count" : 2268,
            "max" : [
                2.2800002098083496,
                0.07999999076128006,
                0.009000000543892384
            ],
            "min" : [
                0.07500000298023224,
                -0.07999999076128006,
                -0.6914074420928955
            ],
            "type" : "VEC3"
        },
        {
            "bufferView" : 9,
            "componentType" : 5126,
            "count" : 2268,
            "type" : "VEC3"
        },
        {
            "bufferView" : 10,
            "componentType" : 5126,
            "count" : 2268,
            "type" : "VEC2"
        },
        {
            "bufferView" : 11,
            "componentType" : 5123,
            "count" : 4032,
            "type" : "SCALAR"
        },
        {
            "bufferView" : 12,
            "componentType" : 5126,
            "count" : 200,
            "max" : [
                2.3325512409210205,
                20.935077667236328,
                24.224950790405273
            ],
            "min" : [
                -2.3222715854644775,
                -6.728348255157471,
                -2.3222711086273193
            ],
            "type" : "VEC3"
        },
        {
            "bufferView" : 13,
            "componentType" : 5126,
            "count" : 200,
            "type" : "VEC3"
        },
        {
            "bufferView" : 14,
            "componentType" : 5123,
            "count" : 1188,
            "type" : "SCALAR"
        },
        {
            "bufferView" : 15,
            "componentType" : 5126,
            "count" : 200,
            "max" : [
                2.3325512409210205,
                20.935077667236328,
                24.224950790405273
            ],
            "min" : [
                -2.3222715854644775,
                -6.728348255157471,
                -2.3222711086273193
            ],
            "type" : "VEC3"
        },
        {
            "bufferView" : 16,
            "componentType" : 5126,
            "count" : 200,
            "type" : "VEC3"
        },
        {
            "bufferView" : 17,
            "componentType" : 5126,
            "count" : 24,
            "max" : [
                1,
                1,
                1
            ],
            "min" : [
                -1,
                -1,
                -1
            ],
            "type" : "VEC3"
        },
        {
            "bufferView" : 18,
            "componentType" : 5126,
            "count" : 24,
            "type" : "VEC3"
        },
        {
            "bufferView" : 19,
            "componentType" : 5126,
            "count" : 24,
            "type" : "VEC2"
        },
        {
            "bufferView" : 20,
            "componentType" : 5123,
            "count" : 36,
            "type" : "SCALAR"
        },
        {
            "bufferView" : 21,
            "componentType" : 5126,
            "count" : 24,
            "max" : [
                1,
                1,
                1
            ],
            "min" : [
                -1,
                -1,
                -1
            ],
            "type" : "VEC3"
        },
        {
            "bufferView" : 22,
            "componentType" : 5126,
            "count" : 24,
            "type" : "VEC3"
        },
        {
            "bufferView" : 23,
            "componentType" : 5126,
            "count" : 24,
            "type" : "VEC2"
        },
        {
            "bufferView" : 24,
            "componentType" : 5123,
            "count" : 36,
            "type" : "SCALAR"
        },
        {
            "bufferView" : 25,
            "componentType" : 5126,
            "count" : 5784,
            "max" : [
                10.594151496887207,
                0.14999999105930328,
                0.029037486761808395
            ],
            "min" : [
                0.019916405901312828,
                -0.14999999105930328,
                -0.7110365629196167
            ],
            "type" : "VEC3"
        },
        {
            "bufferView" : 26,
            "componentType" : 5126,
            "count" : 5784,
            "type" : "VEC3"
        },
        {
            "bufferView" : 27,
            "componentType" : 5126,
            "count" : 5784,
            "type" : "VEC2"
        },
        {
            "bufferView" : 28,
            "componentType" : 5123,
            "count" : 10404,
            "type" : "SCALAR"
        }
    ],
    "bufferViews" : [
        {
            "buffer" : 0,
            "byteLength" : 30120,
            "byteOffset" : 0
        },
        {
            "buffer" : 0,
            "byteLength" : 30120,
            "byteOffset" : 30120
        },
        {
            "buffer" : 0,
            "byteLength" : 20080,
            "byteOffset" : 60240
        },
        {
            "buffer" : 0,
            "byteLength" : 9096,
            "byteOffset" : 80320
        },
        {
            "buffer" : 0,
            "byteLength" : 29184,
            "byteOffset" : 89416
        },
        {
            "buffer" : 0,
            "byteLength" : 29184,
            "byteOffset" : 118600
        },
        {
            "buffer" : 0,
            "byteLength" : 19456,
            "byteOffset" : 147784
        },
        {
            "buffer" : 0,
            "byteLength" : 8472,
            "byteOffset" : 167240
        },
        {
            "buffer" : 0,
            "byteLength" : 27216,
            "byteOffset" : 175712
        },
        {
            "buffer" : 0,
            "byteLength" : 27216,
            "byteOffset" : 202928
        },
        {
            "buffer" : 0,
            "byteLength" : 18144,
            "byteOffset" : 230144
        },
        {
            "buffer" : 0,
            "byteLength" : 8064,
            "byteOffset" : 248288
        },
        {
            "buffer" : 0,
            "byteLength" : 2400,
            "byteOffset" : 256352
        },
        {
            "buffer" : 0,
            "byteLength" : 2400,
            "byteOffset" : 258752
        },
        {
            "buffer" : 0,
            "byteLength" : 2376,
            "byteOffset" : 261152
        },
        {
            "buffer" : 0,
            "byteLength" : 2400,
            "byteOffset" : 263528
        },
        {
            "buffer" : 0,
            "byteLength" : 2400,
            "byteOffset" : 265928
        },
        {
            "buffer" : 0,
            "byteLength" : 288,
            "byteOffset" : 268328
        },
        {
            "buffer" : 0,
            "byteLength" : 288,
            "byteOffset" : 268616
        },
        {
            "buffer" : 0,
            "byteLength" : 192,
            "byteOffset" : 268904
        },
        {
            "buffer" : 0,
            "byteLength" : 72,
            "byteOffset" : 269096
        },
        {
            "buffer" : 0,
            "byteLength" : 288,
            "byteOffset" : 269168
        },
        {
            "buffer" : 0,
            "byteLength" : 288,
            "byteOffset" : 269456
        },
        {
            "buffer" : 0,
            "byteLength" : 192,
            "byteOffset" : 269744
        },
        {
            "buffer" : 0,
            "byteLength" : 72,
            "byteOffset" : 269936
        },
        {
            "buffer" : 0,
            "byteLength" : 69408,
            "byteOffset" : 270008
        },
        {
            "buffer" : 0,
            "byteLength" : 69408,
            "byteOffset" : 339416
        },
        {
            "buffer" : 0,
            "byteLength" : 46272,
            "byteOffset" : 408824
        },
        {
            "buffer" : 0,
            "byteLength" : 20808,
            "byteOffset" : 455096
        }
    ],
    "buffers" : [
        {
            "byteLength" : 475904,
            "uri" : "data:application/octet-stream;base64,"
        }
    ]
}
