{
    "asset" : {
        "generator" : "Khronos glTF Blender I/O v1.7.33",
        "version" : "2.0"
    },
    "scene" : 0,
    "scenes" : [
        {
            "name" : "Scene",
            "nodes" : [
                0,
                1,
                2
            ]
        }
    ],
    "nodes" : [
        {
            "mesh" : 0,
            "name" : "Tomato",
            "rotation" : [
                0,
                1,
                0,
                -7.549789415861596e-08
            ],
            "scale" : [
                0.8510977625846863,
                0.8510977625846863,
                0.8510977625846863
            ],
            "translation" : [
                -0.005441717803478241,
                -0.0608786940574646,
                -0.00710098072886467
            ]
        },
        {
            "mesh" : 1,
            "name" : "Tomato.001",
            "rotation" : [
                0,
                1,
                0,
                -7.549789415861596e-08
            ],
            "scale" : [
                0.8510977625846863,
                0.8510977625846863,
                0.8510977625846863
            ],
            "translation" : [
                -0.04310235381126404,
                1.5170866250991821,
                -0.05624492093920708
            ]
        },
        {
            "mesh" : 2,
            "name" : "Text",
            "rotation" : [
                0.5,
                0.5,
                -0.5,
                0.4999999701976776
            ],
            "scale" : [
                0.5428941249847412,
                0.5428941249847412,
                0.5428941249847412
            ],
            "translation" : [
                0,
                2.017904281616211,
                0.8467457294464111
            ]
        }
    ],
    "materials" : [
        {
            "doubleSided" : true,
            "name" : "Material.004",
            "pbrMetallicRoughness" : {
                "baseColorFactor" : [
                    1,
                    0.011088770814239979,
                    0.011088770814239979,
                    1
                ],
                "metallicFactor" : 0,
                "roughnessFactor" : 0.4000000059604645
            }
        },
        {
            "doubleSided" : true,
            "name" : "Material.007",
            "pbrMetallicRoughness" : {
                "baseColorFactor" : [
                    0.2582121193408966,
                    0.8000000715255737,
                    0.003524550935253501,
                    1
                ],
                "metallicFactor" : 0,
                "roughnessFactor" : 0.4000000059604645
            }
        },
        {
            "doubleSided" : true,
            "name" : "Material.008",
            "pbrMetallicRoughness" : {
                "baseColorFactor" : [
                    0,
                    0,
                    0,
                    1
                ],
                "metallicFactor" : 0,
                "roughnessFactor" : 0.4000000059604645
            }
        }
    ],
    "meshes" : [
        {
            "name" : "Sphere",
            "primitives" : [
                {
                    "attributes" : {
                        "POSITION" : 0,
                        "NORMAL" : 1,
                        "TEXCOORD_0" : 2,
                        "TEXCOORD_1" : 3
                    },
                    "indices" : 4,
                    "material" : 0
                }
            ]
        },
        {
            "name" : "Sphere.001",
            "primitives" : [
                {
                    "attributes" : {
                        "POSITION" : 5,
                        "NORMAL" : 6,
                        "TEXCOORD_0" : 7,
                        "TEXCOORD_1" : 8
                    },
                    "indices" : 9,
                    "material" : 1
                }
            ]
        },
        {
            "name" : "Text",
            "primitives" : [
                {
                    "attributes" : {
                        "POSITION" : 10,
                        "NORMAL" : 11,
                        "TEXCOORD_0" : 12
                    },
                    "indices" : 13,
                    "material" : 2
                }
            ]
        }
    ],
    "accessors" : [
        {
            "bufferView" : 0,
            "componentType" : 5126,
            "count" : 701,
            "max" : [
                1.0279672145843506,
                2.082710027694702,
                0.9999998211860657
            ],
            "min" : [
                -0.9720332026481628,
                0,
                -1.000000238418579
            ],
            "type" : "VEC3"
        },
        {
            "bufferView" : 1,
            "componentType" : 5126,
            "count" : 701,
            "type" : "VEC3"
        },
        {
            "bufferView" : 2,
            "componentType" : 5126,
            "count" : 701,
            "type" : "VEC2"
        },
        {
            "bufferView" : 3,
            "componentType" : 5126,
            "count" : 701,
            "type" : "VEC2"
        },
        {
            "bufferView" : 4,
            "componentType" : 5123,
            "count" : 3264,
            "type" : "SCALAR"
        },
        {
            "bufferView" : 5,
            "componentType" : 5126,
            "count" : 281,
            "max" : [
                0.6862484812736511,
                0.2825431823730469,
                0.47565343976020813
            ],
            "min" : [
                -0.7346233129501343,
                -0.17253708839416504,
                -0.5657505989074707
            ],
            "type" : "VEC3"
        },
        {
            "bufferView" : 6,
            "componentType" : 5126,
            "count" : 281,
            "type" : "VEC3"
        },
        {
            "bufferView" : 7,
            "componentType" : 5126,
            "count" : 281,
            "type" : "VEC2"
        },
        {
            "bufferView" : 8,
            "componentType" : 5126,
            "count" : 281,
            "type" : "VEC2"
        },
        {
            "bufferView" : 9,
            "componentType" : 5123,
            "count" : 666,
            "type" : "SCALAR"
        },
        {
            "bufferView" : 10,
            "componentType" : 5126,
            "count" : 3552,
            "max" : [
                3.203000068664551,
                0.05000000074505806,
                0.009000000543892384
            ],
            "min" : [
                0.017000000923871994,
                -0.05000000074505806,
                -0.6820000410079956
            ],
            "type" : "VEC3"
        },
        {
            "bufferView" : 11,
            "componentType" : 5126,
            "count" : 3552,
            "type" : "VEC3"
        },
        {
            "bufferView" : 12,
            "componentType" : 5126,
            "count" : 3552,
            "type" : "VEC2"
        },
        {
            "bufferView" : 13,
            "componentType" : 5123,
            "count" : 6432,
            "type" : "SCALAR"
        }
    ],
    "bufferViews" : [
        {
            "buffer" : 0,
            "byteLength" : 8412,
            "byteOffset" : 0
        },
        {
            "buffer" : 0,
            "byteLength" : 8412,
            "byteOffset" : 8412
        },
        {
            "buffer" : 0,
            "byteLength" : 5608,
            "byteOffset" : 16824
        },
        {
            "buffer" : 0,
            "byteLength" : 5608,
            "byteOffset" : 22432
        },
        {
            "buffer" : 0,
            "byteLength" : 6528,
            "byteOffset" : 28040
        },
        {
            "buffer" : 0,
            "byteLength" : 3372,
            "byteOffset" : 34568
        },
        {
            "buffer" : 0,
            "byteLength" : 3372,
            "byteOffset" : 37940
        },
        {
            "buffer" : 0,
            "byteLength" : 2248,
            "byteOffset" : 41312
        },
        {
            "buffer" : 0,
            "byteLength" : 2248,
            "byteOffset" : 43560
        },
        {
            "buffer" : 0,
            "byteLength" : 1332,
            "byteOffset" : 45808
        },
        {
            "buffer" : 0,
            "byteLength" : 42624,
            "byteOffset" : 47140
        },
        {
            "buffer" : 0,
            "byteLength" : 42624,
            "byteOffset" : 89764
        },
        {
            "buffer" : 0,
            "byteLength" : 28416,
            "byteOffset" : 132388
        },
        {
            "buffer" : 0,
            "byteLength" : 12864,
            "byteOffset" : 160804
        }
    ],
    "buffers" : [
        {
            "byteLength" : 173668,
            "uri" : "data:application/octet-stream;base64,"
        }
    ]
}
