{
    "asset" : {
        "generator" : "Khronos glTF Blender I/O v1.7.33",
        "version" : "2.0"
    },
    "scene" : 0,
    "scenes" : [
        {
            "name" : "Scene",
            "nodes" : [
                0,
                1,
                2,
                3,
                4,
                5,
                6,
                7
            ]
        }
    ],
    "nodes" : [
        {
            "mesh" : 0,
            "name" : "Text.003",
            "rotation" : [
                0.5,
                0.5,
                -0.5,
                0.4999999701976776
            ],
            "scale" : [
                0.17320024967193604,
                0.17320024967193604,
                0.17320024967193604
            ],
            "translation" : [
                -0.006895601749420166,
                1.9275301694869995,
                1.315115213394165
            ]
        },
        {
            "mesh" : 1,
            "name" : "Text.002",
            "rotation" : [
                0.5,
                0.5,
                -0.5,
                0.4999999701976776
            ],
            "scale" : [
                0.16458438336849213,
                0.16458438336849213,
                0.16458438336849213
            ],
            "translation" : [
                0.29185813665390015,
                0.12407028675079346,
                1.719394326210022
            ]
        },
        {
            "mesh" : 2,
            "name" : "Text.001",
            "rotation" : [
                0.5,
                0.5,
                -0.5,
                0.4999999701976776
            ],
            "scale" : [
                0.16458438336849213,
                0.16458438336849213,
                0.16458438336849213
            ],
            "translation" : [
                0.04288208484649658,
                1.4875441789627075,
                -0.1913779377937317
            ]
        },
        {
            "mesh" : 3,
            "name" : "Text",
            "rotation" : [
                0.5,
                0.5,
                -0.5,
                0.4999999701976776
            ],
            "scale" : [
                0.16458438336849213,
                0.16458438336849213,
                0.16458438336849213
            ],
            "translation" : [
                0.04288208484649658,
                0.04000556468963623,
                0.6025279760360718
            ]
        },
        {
            "mesh" : 4,
            "name" : "Cylinder.008",
            "rotation" : [
                0.704130232334137,
                0.0012415294768288732,
                0.7099359035491943,
                0.013787409290671349
            ],
            "scale" : [
                -0.04953504726290703,
                0.01967543177306652,
                0.0028976204339414835
            ],
            "translation" : [
                -0.015257596969604492,
                0.6007488965988159,
                0.4531649053096771
            ]
        },
        {
            "mesh" : 5,
            "name" : "Cylinder.001",
            "rotation" : [
                -0.01378727424889803,
                0.7099361419677734,
                -0.0012418931582942605,
                0.7041299939155579
            ],
            "scale" : [
                -0.04953504726290703,
                0.01967543549835682,
                0.002897619502618909
            ],
            "translation" : [
                -0.015257596969604492,
                1.030366063117981,
                -0.35545051097869873
            ]
        },
        {
            "mesh" : 6,
            "name" : "Cube.001",
            "scale" : [
                0.0915951132774353,
                0.07066517323255539,
                1.0323750972747803
            ],
            "translation" : [
                -0.006895601749420166,
                0.8203858137130737,
                0.4597012400627136
            ]
        },
        {
            "mesh" : 7,
            "name" : "Cube.002",
            "scale" : [
                0.2468765676021576,
                0.2468765676021576,
                0.2468765676021576
            ],
            "translation" : [
                -0.006895601749420166,
                0.5166035890579224,
                1.4494762420654297
            ]
        }
    ],
    "materials" : [
        {
            "doubleSided" : true,
            "name" : "Material.007",
            "pbrMetallicRoughness" : {
                "baseColorFactor" : [
                    0.0016551729058846831,
                    0.0016551729058846831,
                    0.0016551729058846831,
                    1
                ],
                "metallicFactor" : 0,
                "roughnessFactor" : 0.4000000059604645
            }
        },
        {
            "doubleSided" : true,
            "name" : "Material.005",
            "pbrMetallicRoughness" : {
                "baseColorFactor" : [
                    0.0076283784583210945,
                    0.8000000715255737,
                    0.0076972744427621365,
                    1
                ],
                "metallicFactor" : 0,
                "roughnessFactor" : 0.4000000059604645
            }
        },
        {
            "doubleSided" : true,
            "name" : "Material.004",
            "pbrMetallicRoughness" : {
                "baseColorFactor" : [
                    0.036704640835523605,
                    0.7019696235656738,
                    0.8000000715255737,
                    1
                ],
                "metallicFactor" : 0,
                "roughnessFactor" : 0.4000000059604645
            }
        },
        {
            "doubleSided" : true,
            "name" : "Material.003",
            "pbrMetallicRoughness" : {
                "baseColorFactor" : [
                    0.8000000715255737,
                    0.01948198303580284,
                    0.016456076875329018,
                    1
                ],
                "metallicFactor" : 0,
                "roughnessFactor" : 0.4000000059604645
            }
        },
        {
            "doubleSided" : true,
            "name" : "Material.029",
            "pbrMetallicRoughness" : {
                "baseColorFactor" : [
                    0.5488519072532654,
                    0.008980941958725452,
                    0.006390058435499668,
                    1
                ],
                "metallicFactor" : 0,
                "roughnessFactor" : 0.5
            }
        },
        {
            "doubleSided" : true,
            "name" : "Material.001",
            "pbrMetallicRoughness" : {
                "baseColorFactor" : [
                    0.003337554167956114,
                    0.41505539417266846,
                    0.5488519072532654,
                    1
                ],
                "metallicFactor" : 0,
                "roughnessFactor" : 0.5
            }
        },
        {
            "doubleSided" : true,
            "name" : "Material.002",
            "pbrMetallicRoughness" : {
                "baseColorFactor" : [
                    0.6497827768325806,
                    0.8000000715255737,
                    0.014798684976994991,
                    1
                ],
                "metallicFactor" : 0,
                "roughnessFactor" : 0.4000000059604645
            }
        },
        {
            "doubleSided" : true,
            "name" : "Material.006",
            "pbrMetallicRoughness" : {
                "baseColorFactor" : [
                    0.008376442827284336,
                    0.8000000715255737,
                    0.04727282002568245,
                    1
                ],
                "metallicFactor" : 0,
                "roughnessFactor" : 0.4000000059604645
            }
        }
    ],
    "meshes" : [
        {
            "name" : "Text.004",
            "primitives" : [
                {
                    "attributes" : {
                        "POSITION" : 0,
                        "NORMAL" : 1,
                        "TEXCOORD_0" : 2
                    },
                    "indices" : 3,
                    "material" : 0
                }
            ]
        },
        {
            "name" : "Text.003",
            "primitives" : [
                {
                    "attributes" : {
                        "POSITION" : 4,
                        "NORMAL" : 5,
                        "TEXCOORD_0" : 6
                    },
                    "indices" : 7,
                    "material" : 1
                }
            ]
        },
        {
            "name" : "Text.002",
            "primitives" : [
                {
                    "attributes" : {
                        "POSITION" : 8,
                        "NORMAL" : 9,
                        "TEXCOORD_0" : 10
                    },
                    "indices" : 11,
                    "material" : 2
                }
            ]
        },
        {
            "name" : "Text",
            "primitives" : [
                {
                    "attributes" : {
                        "POSITION" : 12,
                        "NORMAL" : 13,
                        "TEXCOORD_0" : 14
                    },
                    "indices" : 15,
                    "material" : 3
                }
            ]
        },
        {
            "name" : "Cylinder.008",
            "primitives" : [
                {
                    "attributes" : {
                        "POSITION" : 16,
                        "NORMAL" : 17
                    },
                    "indices" : 18,
                    "material" : 4
                }
            ]
        },
        {
            "name" : "Cylinder.002",
            "primitives" : [
                {
                    "attributes" : {
                        "POSITION" : 19,
                        "NORMAL" : 20
                    },
                    "indices" : 18,
                    "material" : 5
                }
            ]
        },
        {
            "name" : "Cube.001",
            "primitives" : [
                {
                    "attributes" : {
                        "POSITION" : 21,
                        "NORMAL" : 22,
                        "TEXCOORD_0" : 23
                    },
                    "indices" : 24,
                    "material" : 6
                }
            ]
        },
        {
            "name" : "Cube.002",
            "primitives" : [
                {
                    "attributes" : {
                        "POSITION" : 25,
                        "NORMAL" : 26,
                        "TEXCOORD_0" : 27
                    },
                    "indices" : 28,
                    "material" : 7
                }
            ]
        }
    ],
    "accessors" : [
        {
            "bufferView" : 0,
            "componentType" : 5126,
            "count" : 4443,
            "max" : [
                9.511151313781738,
                0.14999999105930328,
                0.029037486761808395
            ],
            "min" : [
                -0.002999980002641678,
                -0.14999999105930328,
                -0.7110365629196167
            ],
            "type" : "VEC3"
        },
        {
            "bufferView" : 1,
            "componentType" : 5126,
            "count" : 4443,
            "type" : "VEC3"
        },
        {
            "bufferView" : 2,
            "componentType" : 5126,
            "count" : 4443,
            "type" : "VEC2"
        },
        {
            "bufferView" : 3,
            "componentType" : 5123,
            "count" : 7788,
            "type" : "SCALAR"
        },
        {
            "bufferView" : 4,
            "componentType" : 5126,
            "count" : 2510,
            "max" : [
                3.233999729156494,
                0.07999999076128006,
                0.009000000543892384
            ],
            "min" : [
                0.07600000500679016,
                -0.07999999076128006,
                -0.6820000410079956
            ],
            "type" : "VEC3"
        },
        {
            "bufferView" : 5,
            "componentType" : 5126,
            "count" : 2510,
            "type" : "VEC3"
        },
        {
            "bufferView" : 6,
            "componentType" : 5126,
            "count" : 2510,
            "type" : "VEC2"
        },
        {
            "bufferView" : 7,
            "componentType" : 5123,
            "count" : 4548,
            "type" : "SCALAR"
        },
        {
            "bufferView" : 8,
            "componentType" : 5126,
            "count" : 2432,
            "max" : [
                1.9200000762939453,
                0.07999999076128006,
                0.009000000543892384
            ],
            "min" : [
                0.07400000095367432,
                -0.07999999076128006,
                -0.6820000410079956
            ],
            "type" : "VEC3"
        },
        {
            "bufferView" : 9,
            "componentType" : 5126,
            "count" : 2432,
            "type" : "VEC3"
        },
        {
            "bufferView" : 10,
            "componentType" : 5126,
            "count" : 2432,
            "type" : "VEC2"
        },
        {
            "bufferView" : 11,
            "componentType" : 5123,
            "count" : 4236,
            "type" : "SCALAR"
        },
        {
            "bufferView" : 12,
            "componentType" : 5126,
            "count" : 2270,
            "max" : [
                2.2800002098083496,
                0.07999999076128006,
                0.009000000543892384
            ],
            "min" : [
                0.07500000298023224,
                -0.07999999076128006,
                -0.6914074420928955
            ],
            "type" : "VEC3"
        },
        {
            "bufferView" : 13,
            "componentType" : 5126,
            "count" : 2270,
            "type" : "VEC3"
        },
        {
            "bufferView" : 14,
            "componentType" : 5126,
            "count" : 2270,
            "type" : "VEC2"
        },
        {
            "bufferView" : 15,
            "componentType" : 5123,
            "count" : 4032,
            "type" : "SCALAR"
        },
        {
            "bufferView" : 16,
            "componentType" : 5126,
            "count" : 200,
            "max" : [
                2.3325512409210205,
                20.935077667236328,
                24.224950790405273
            ],
            "min" : [
                -2.3222715854644775,
                -6.728348255157471,
                -2.3222711086273193
            ],
            "type" : "VEC3"
        },
        {
            "bufferView" : 17,
            "componentType" : 5126,
            "count" : 200,
            "type" : "VEC3"
        },
        {
            "bufferView" : 18,
            "componentType" : 5123,
            "count" : 1188,
            "type" : "SCALAR"
        },
        {
            "bufferView" : 19,
            "componentType" : 5126,
            "count" : 200,
            "max" : [
                2.3325512409210205,
                20.935077667236328,
                24.224950790405273
            ],
            "min" : [
                -2.3222715854644775,
                -6.728348255157471,
                -2.3222711086273193
            ],
            "type" : "VEC3"
        },
        {
            "bufferView" : 20,
            "componentType" : 5126,
            "count" : 200,
            "type" : "VEC3"
        },
        {
            "bufferView" : 21,
            "componentType" : 5126,
            "count" : 24,
            "max" : [
                1,
                1,
                1
            ],
            "min" : [
                -1,
                -1,
                -1
            ],
            "type" : "VEC3"
        },
        {
            "bufferView" : 22,
            "componentType" : 5126,
            "count" : 24,
            "type" : "VEC3"
        },
        {
            "bufferView" : 23,
            "componentType" : 5126,
            "count" : 24,
            "type" : "VEC2"
        },
        {
            "bufferView" : 24,
            "componentType" : 5123,
            "count" : 36,
            "type" : "SCALAR"
        },
        {
            "bufferView" : 25,
            "componentType" : 5126,
            "count" : 32,
            "max" : [
                1,
                1,
                1
            ],
            "min" : [
                -1,
                -1,
                -1
            ],
            "type" : "VEC3"
        },
        {
            "bufferView" : 26,
            "componentType" : 5126,
            "count" : 32,
            "type" : "VEC3"
        },
        {
            "bufferView" : 27,
            "componentType" : 5126,
            "count" : 32,
            "type" : "VEC2"
        },
        {
            "bufferView" : 28,
            "componentType" : 5123,
            "count" : 36,
            "type" : "SCALAR"
        }
    ],
    "bufferViews" : [
        {
            "buffer" : 0,
            "byteLength" : 53316,
            "byteOffset" : 0
        },
        {
            "buffer" : 0,
            "byteLength" : 53316,
            "byteOffset" : 53316
        },
        {
            "buffer" : 0,
            "byteLength" : 35544,
            "byteOffset" : 106632
        },
        {
            "buffer" : 0,
            "byteLength" : 15576,
            "byteOffset" : 142176
        },
        {
            "buffer" : 0,
            "byteLength" : 30120,
            "byteOffset" : 157752
        },
        {
            "buffer" : 0,
            "byteLength" : 30120,
            "byteOffset" : 187872
        },
        {
            "buffer" : 0,
            "byteLength" : 20080,
            "byteOffset" : 217992
        },
        {
            "buffer" : 0,
            "byteLength" : 9096,
            "byteOffset" : 238072
        },
        {
            "buffer" : 0,
            "byteLength" : 29184,
            "byteOffset" : 247168
        },
        {
            "buffer" : 0,
            "byteLength" : 29184,
            "byteOffset" : 276352
        },
        {
            "buffer" : 0,
            "byteLength" : 19456,
            "byteOffset" : 305536
        },
        {
            "buffer" : 0,
            "byteLength" : 8472,
            "byteOffset" : 324992
        },
        {
            "buffer" : 0,
            "byteLength" : 27240,
            "byteOffset" : 333464
        },
        {
            "buffer" : 0,
            "byteLength" : 27240,
            "byteOffset" : 360704
        },
        {
            "buffer" : 0,
            "byteLength" : 18160,
            "byteOffset" : 387944
        },
        {
            "buffer" : 0,
            "byteLength" : 8064,
            "byteOffset" : 406104
        },
        {
            "buffer" : 0,
            "byteLength" : 2400,
            "byteOffset" : 414168
        },
        {
            "buffer" : 0,
            "byteLength" : 2400,
            "byteOffset" : 416568
        },
        {
            "buffer" : 0,
            "byteLength" : 2376,
            "byteOffset" : 418968
        },
        {
            "buffer" : 0,
            "byteLength" : 2400,
            "byteOffset" : 421344
        },
        {
            "buffer" : 0,
            "byteLength" : 2400,
            "byteOffset" : 423744
        },
        {
            "buffer" : 0,
            "byteLength" : 288,
            "byteOffset" : 426144
        },
        {
            "buffer" : 0,
            "byteLength" : 288,
            "byteOffset" : 426432
        },
        {
            "buffer" : 0,
            "byteLength" : 192,
            "byteOffset" : 426720
        },
        {
            "buffer" : 0,
            "byteLength" : 72,
            "byteOffset" : 426912
        },
        {
            "buffer" : 0,
            "byteLength" : 384,
            "byteOffset" : 426984
        },
        {
            "buffer" : 0,
            "byteLength" : 384,
            "byteOffset" : 427368
        },
        {
            "buffer" : 0,
            "byteLength" : 256,
            "byteOffset" : 427752
        },
        {
            "buffer" : 0,
            "byteLength" : 72,
            "byteOffset" : 428008
        }
    ],
    "buffers" : [
        {
            "byteLength" : 428080,
            "uri" : "data:application/octet-stream;base64,"
        }
    ]
}
